<svg width="70" height="70" viewBox="0 0 70 70" fill="none" xmlns="http://www.w3.org/2000/svg">
<rect width="70" height="70" rx="12" fill="url(#paint0_linear_161_1122)"/>
<path d="M25.8089 47.7573L27.2871 48.6209C29.7798 50.0747 32.615 50.838 35.5007 50.832C38.7311 50.832 41.889 49.8741 44.575 48.0794C47.261 46.2846 49.3545 43.7337 50.5907 40.7492C51.8269 37.7647 52.1504 34.4806 51.5202 31.3122C50.8899 28.1439 49.3343 25.2335 47.0501 22.9493C44.7658 20.665 41.8555 19.1094 38.6872 18.4792C35.5188 17.849 32.2347 18.1724 29.2502 19.4087C26.2657 20.6449 23.7147 22.7384 21.92 25.4244C20.1253 28.1104 19.1673 31.2683 19.1673 34.4987C19.1673 37.4305 19.9371 40.2419 21.3805 42.7144L22.2421 44.1925L20.9089 49.0946L25.8089 47.7573ZM15.0922 54.9154L17.8525 44.7724C16.0337 41.6544 15.0781 38.1083 15.084 34.4987C15.084 23.2226 24.2246 14.082 35.5007 14.082C46.7768 14.082 55.9173 23.2226 55.9173 34.4987C55.9173 45.7748 46.7768 54.9154 35.5007 54.9154C31.8926 54.9212 28.348 53.9663 25.2311 52.1489L15.0922 54.9154ZM28.1323 24.9192C28.4059 24.8988 28.6815 24.8988 28.9551 24.911C29.0653 24.9192 29.1756 24.9314 29.2858 24.9437C29.6105 24.9804 29.9678 25.1785 30.0882 25.4521C30.6966 26.8322 31.2887 28.2226 31.8604 29.6171C31.987 29.9274 31.9114 30.3255 31.6705 30.7134C31.5048 30.9758 31.3256 31.2293 31.1336 31.4729C30.9028 31.769 30.4067 32.3121 30.4067 32.3121C30.4067 32.3121 30.2046 32.553 30.2822 32.8531C30.3108 32.9674 30.4047 33.1328 30.4904 33.2717L30.6109 33.4656C31.1336 34.3374 31.8359 35.2214 32.6934 36.0544C32.9384 36.2913 33.1773 36.5342 33.4345 36.7609C34.39 37.6041 35.4721 38.2921 36.6399 38.8025L36.6501 38.8066C36.8237 38.8822 36.9115 38.923 37.1646 39.0312C37.2912 39.0843 37.4219 39.1312 37.5546 39.1659C37.6917 39.2009 37.8362 39.1943 37.9696 39.147C38.1029 39.0998 38.2193 39.014 38.3039 38.9005C39.7821 37.11 39.9168 36.9936 39.9291 36.9936V36.9977C40.0317 36.9019 40.1537 36.8292 40.2869 36.7845C40.42 36.7398 40.5611 36.7241 40.7008 36.7384C40.8233 36.7466 40.9478 36.769 41.0622 36.8201C42.1463 37.3162 43.9205 38.09 43.9205 38.09L45.1088 38.6229C45.3088 38.7188 45.4906 38.9454 45.4967 39.1639C45.5048 39.3007 45.5171 39.5212 45.4701 39.9254C45.4048 40.4542 45.2456 41.0892 45.0863 41.422C44.9772 41.6491 44.8325 41.8573 44.6576 42.0386C44.4515 42.2549 44.226 42.4517 43.9838 42.6266C43.9 42.6896 43.8149 42.7508 43.7286 42.8103C43.4747 42.9714 43.2137 43.1213 42.9466 43.2595C42.421 43.5387 41.8404 43.699 41.2459 43.7291C40.8682 43.7495 40.4905 43.7781 40.1108 43.7577C40.0944 43.7577 38.9511 43.58 38.9511 43.58C36.0484 42.8165 33.3639 41.3862 31.1111 39.4028C30.6497 38.9965 30.223 38.5596 29.7861 38.1247C27.969 36.3178 26.597 34.368 25.764 32.5264C25.3376 31.6226 25.1073 30.6387 25.0882 29.6395C25.0798 28.3999 25.485 27.1929 26.2397 26.2095C26.3887 26.0176 26.5296 25.8175 26.7726 25.5868C27.0318 25.3418 27.1952 25.2112 27.3728 25.1213C27.609 25.003 27.8666 24.9335 28.1303 24.9172L28.1323 24.9192Z" fill="#F2F2F2"/>
<defs>
<linearGradient id="paint0_linear_161_1122" x1="35" y1="0" x2="35" y2="70" gradientUnits="userSpaceOnUse">
<stop stop-color="#00D059"/>
<stop offset="1" stop-color="#00933F"/>
</linearGradient>
</defs>
</svg>
