<svg width="113" height="113" viewBox="0 0 113 113" fill="none" xmlns="http://www.w3.org/2000/svg">
<path d="M44.9697 64.4787L58.5006 96.7697C58.8524 97.6806 59.0192 98.6512 58.9912 99.6259C58.9633 100.601 58.7412 101.56 58.3378 102.45C57.9343 103.34 57.3574 104.142 56.64 104.811C55.9226 105.48 55.0788 106.003 54.1569 106.349L48.4383 108.512C47.5171 108.86 46.5356 109.025 45.5499 108.997C44.5642 108.969 43.5937 108.75 42.6939 108.351C41.7941 107.952 40.9827 107.381 40.3061 106.672C39.6296 105.963 39.1011 105.128 38.751 104.217L22.4389 64.4787M96.4993 31.8195C103.405 31.8195 108.999 37.5979 108.999 44.705C108.999 51.8121 103.405 57.5905 96.4993 57.5905M4 45.9319C4 41.0147 5.9754 36.2989 9.49162 32.822C13.0078 29.345 17.7769 27.3916 22.7496 27.3916H57.4988L96.4979 4V87.8639L57.53 64.4722H22.7496C17.7769 64.4722 13.0078 62.5188 9.49162 59.0419C5.9754 55.5649 4 50.8491 4 45.9319Z" stroke="#D70000" stroke-width="7.5" stroke-miterlimit="10" stroke-linejoin="round"/>
</svg>
