<svg width="70" height="70" viewBox="0 0 70 70" fill="none" xmlns="http://www.w3.org/2000/svg">
<rect width="70" height="70" rx="12" fill="#FFD0D0"/>
<path d="M30.6569 39.1602L35.1674 49.9241C35.2847 50.2278 35.3403 50.5513 35.3309 50.8762C35.3216 51.2011 35.2476 51.521 35.1131 51.8176C34.9786 52.1142 34.7863 52.3817 34.5472 52.6047C34.308 52.8277 34.0268 53.0019 33.7195 53.1173L31.8132 53.8383C31.5061 53.9543 31.1789 54.0092 30.8504 54C30.5218 53.9908 30.1983 53.9176 29.8983 53.7846C29.5984 53.6516 29.3279 53.4615 29.1024 53.225C28.8769 52.9885 28.7007 52.7104 28.584 52.4065L23.1465 39.1602" stroke="#D70000" stroke-width="3" stroke-miterlimit="10" stroke-linejoin="round"/>
<path d="M17 32.9777C17 31.3386 17.6585 29.7666 18.8306 28.6076C20.0027 27.4486 21.5924 26.7974 23.25 26.7974H34.8334L47.8335 19V46.9554L34.8439 39.158H23.25C21.5924 39.158 20.0027 38.5069 18.8306 37.3478C17.6585 36.1888 17 34.6168 17 32.9777V32.9777Z" stroke="#D70000" stroke-width="3" stroke-miterlimit="10" stroke-linejoin="round"/>
<path d="M47.834 28.2734C50.1361 28.2734 52.0007 30.1996 52.0007 32.5687C52.0007 34.9378 50.1361 36.864 47.834 36.864" stroke="#D70000" stroke-width="3" stroke-miterlimit="10" stroke-linejoin="round"/>
</svg>
