<svg width="123" height="119" viewBox="0 0 123 119" fill="none" xmlns="http://www.w3.org/2000/svg">
<g filter="url(#filter0_d_109_1581)">
<path d="M78.2143 47.5703H44.7857C43.242 47.5703 42 48.8123 42 50.356V74.4989C42 76.0426 43.242 77.2846 44.7857 77.2846H78.2143C79.758 77.2846 81 76.0426 81 74.4989V50.356C81 48.8123 79.758 47.5703 78.2143 47.5703Z" stroke="#AE4BDD" stroke-width="3" stroke-miterlimit="10" stroke-linejoin="round"/>
<path d="M67.999 47.5714V44.7857C67.999 43.242 66.7571 42 65.2133 42H57.7847C56.241 42 54.999 43.242 54.999 44.7857V47.5714" stroke="#AE4BDD" stroke-width="3" stroke-miterlimit="10" stroke-linejoin="round"/>
<path d="M42 61.4961H81" stroke="#AE4BDD" stroke-width="3" stroke-miterlimit="10" stroke-linejoin="round"/>
<path d="M66.1422 61.4961V66.139H56.8564V61.4961" stroke="#AE4BDD" stroke-width="3" stroke-miterlimit="10" stroke-linejoin="round"/>
</g>
<defs>
<filter id="filter0_d_109_1581" x="0.5" y="0.5" width="122" height="118.285" filterUnits="userSpaceOnUse" color-interpolation-filters="sRGB">
<feFlood flood-opacity="0" result="BackgroundImageFix"/>
<feColorMatrix in="SourceAlpha" type="matrix" values="0 0 0 0 0 0 0 0 0 0 0 0 0 0 0 0 0 0 127 0" result="hardAlpha"/>
<feOffset/>
<feGaussianBlur stdDeviation="20"/>
<feComposite in2="hardAlpha" operator="out"/>
<feColorMatrix type="matrix" values="0 0 0 0 0.286275 0 0 0 0 0.329412 0 0 0 0 0.898039 0 0 0 0.1 0"/>
<feBlend mode="normal" in2="BackgroundImageFix" result="effect1_dropShadow_109_1581"/>
<feBlend mode="normal" in="SourceGraphic" in2="effect1_dropShadow_109_1581" result="shape"/>
</filter>
</defs>
</svg>
