<svg width="70" height="70" viewBox="0 0 70 70" fill="none" xmlns="http://www.w3.org/2000/svg">
<rect width="70" height="70" rx="12" fill="#D9F2DF"/>
<path d="M21.3521 36.1516H48.4218L51.7304 19.6055H18.6394C18.422 19.6062 18.2069 19.6497 18.0064 19.7336C17.8058 19.8175 17.6237 19.94 17.4706 20.0943C17.3174 20.2486 17.1962 20.4315 17.1138 20.6327C17.0313 20.8339 16.9894 21.0493 16.9902 21.2667C16.9902 21.3645 16.9993 21.4621 17.0174 21.5582L19.7306 34.7962C19.7942 35.1786 19.9928 35.5256 20.2903 35.7742C20.5877 36.0229 20.9644 36.1568 21.3521 36.1516Z" stroke="#42BC5F" stroke-width="3" stroke-linecap="round" stroke-linejoin="round"/>
<path d="M27.8789 26.4141L28.6687 29.5734" stroke="#42BC5F" stroke-width="3" stroke-linecap="round" stroke-linejoin="round"/>
<path d="M38.9363 26.4141L38.1465 29.5734" stroke="#42BC5F" stroke-width="3" stroke-linecap="round" stroke-linejoin="round"/>
<path d="M51.7285 19.6064L53.1183 14.3116C53.1946 13.938 53.3977 13.6021 53.6932 13.361C53.9887 13.1198 54.3584 12.9882 54.7398 12.9883H59.9994" stroke="#42BC5F" stroke-width="3" stroke-linecap="round" stroke-linejoin="round"/>
<path d="M48.4201 36.1523L47.0303 43.1016C46.9542 43.4754 46.7511 43.8113 46.4556 44.0525C46.1601 44.2937 45.7902 44.4253 45.4088 44.425H25.2559" stroke="#42BC5F" stroke-width="3" stroke-linecap="round" stroke-linejoin="round"/>
<path d="M26.9104 52.6992C27.2377 52.6991 27.5578 52.7961 27.83 52.9779C28.1022 53.1598 28.3144 53.4182 28.4397 53.7207C28.5651 54.0231 28.5979 54.3559 28.534 54.6769C28.4702 54.998 28.3125 55.293 28.0811 55.5244C27.8496 55.7559 27.5547 55.9135 27.2336 55.9774C26.9125 56.0412 26.5797 56.0084 26.2773 55.8831C25.9749 55.7578 25.7164 55.5456 25.5346 55.2734C25.3528 55.0011 25.2558 54.6811 25.2559 54.3537C25.2559 54.1365 25.2987 53.9213 25.3818 53.7206C25.465 53.5198 25.5868 53.3375 25.7405 53.1838C25.8941 53.0302 26.0765 52.9083 26.2772 52.8252C26.478 52.742 26.6931 52.6992 26.9104 52.6992Z" fill="#42BC5F" stroke="#42BC5F" stroke-width="3" stroke-linecap="round" stroke-linejoin="round"/>
<path d="M43.4553 52.6992C43.7827 52.6991 44.1027 52.7961 44.3749 52.9779C44.6472 53.1598 44.8593 53.4182 44.9847 53.7207C45.11 54.0231 45.1428 54.3559 45.0789 54.6769C45.0151 54.998 44.8575 55.293 44.626 55.5244C44.3945 55.7559 44.0996 55.9135 43.7785 55.9774C43.4574 56.0412 43.1246 56.0084 42.8222 55.8831C42.5198 55.7578 42.2613 55.5456 42.0795 55.2734C41.8977 55.0011 41.8007 54.6811 41.8008 54.3537C41.8008 54.1365 41.8436 53.9213 41.9267 53.7206C42.0099 53.5198 42.1317 53.3375 42.2854 53.1838C42.439 53.0302 42.6214 52.9083 42.8221 52.8252C43.0229 52.742 43.238 52.6992 43.4553 52.6992V52.6992Z" fill="#42BC5F" stroke="#42BC5F" stroke-width="3" stroke-linecap="round" stroke-linejoin="round"/>
</svg>
