<svg width="126" height="113" viewBox="0 0 126 113" fill="none" xmlns="http://www.w3.org/2000/svg">
<path d="M84.9135 61.5007C77.3012 69.1636 64.3644 71.7003 56.901 64.0343C66.8515 53.7354 56.901 48.7613 64.3633 41.2958C66.9202 38.448 70.5036 36.7326 74.3252 36.527C78.1468 36.3213 81.8936 37.6421 84.7414 40.199C87.5891 42.7558 89.3045 46.3392 89.5102 50.1609C89.7159 53.9825 88.395 57.7293 85.8382 60.577C85.4841 60.9712 85.1088 61.3458 84.7139 61.6992L84.9135 61.5007Z" fill="#0080FF"/>
<path d="M84.914 61.5154C77.3018 69.1783 64.3649 71.715 56.9015 64.0489C66.852 53.7501 56.9015 48.776 64.3639 41.3105C66.9207 38.4627 70.5041 36.7473 74.3257 36.5416C78.1474 36.3359 81.8942 37.6568 84.7419 40.2137C87.5897 42.7705 89.3051 46.3539 89.5108 50.1755C89.7165 53.9972 88.3956 57.744 85.8387 60.5917C85.4846 60.9859 85.1093 61.3605 84.7145 61.7139L84.914 61.5154Z" fill="#D1E9FF"/>
<path d="M90.9305 25.8507C93.0016 25.8507 94.6805 24.1717 94.6805 22.1007C94.6805 20.0296 93.0016 18.3507 90.9305 18.3507V25.8507ZM105.981 35.7609C105.981 33.6899 104.303 32.0109 102.231 32.0109C100.16 32.0109 98.4815 33.6899 98.4815 35.7609H105.981ZM49.0412 91.5033C49.8105 89.5805 48.8753 87.398 46.9524 86.6287C45.0295 85.8594 42.8471 86.7946 42.0778 88.7174L49.0412 91.5033ZM34.5205 107.607C33.7512 109.53 34.6863 111.712 36.6092 112.482C38.5321 113.251 40.7146 112.316 41.4839 110.393L34.5205 107.607ZM64.1529 88.7174C63.3836 86.7946 61.2011 85.8594 59.2782 86.6287C57.3553 87.398 56.4202 89.5805 57.1895 91.5033L64.1529 88.7174ZM64.7468 110.393C65.5161 112.316 67.6986 113.251 69.6214 112.482C71.5443 111.712 72.4795 109.53 71.7102 107.607L64.7468 110.393ZM30.4467 105.249C28.3757 105.249 26.6967 106.928 26.6967 108.999C26.6967 111.07 28.3757 112.749 30.4467 112.749V105.249ZM75.7843 112.749C77.8554 112.749 79.5343 111.07 79.5343 108.999C79.5343 106.928 77.8554 105.249 75.7843 105.249V112.749ZM84.9135 61.5007L87.5739 64.1436L82.2688 58.8421L84.9135 61.5007ZM56.901 64.0343L54.2041 61.4286L51.677 64.0442L54.2141 66.6502L56.901 64.0343ZM64.3633 41.2958L67.0155 43.9469L67.0865 43.8758L67.1537 43.8011L64.3633 41.2958ZM85.8382 60.577L88.6279 63.083L88.6285 63.0823L85.8382 60.577ZM84.7139 61.6992L82.0693 59.0405L87.2147 64.4936L84.7139 61.6992ZM118.697 6.88979L121.367 4.2568L121.348 4.23748L121.328 4.21844L118.697 6.88979ZM104.168 7.33738L101.377 4.8331L101.373 4.83682L104.168 7.33738ZM118.249 21.4185L120.751 24.2117L120.752 24.2109L118.249 21.4185ZM84.914 61.5154L87.5744 64.1582C89.0309 62.692 89.0266 60.3238 87.5648 58.8629C86.103 57.402 83.7347 57.3992 82.2694 58.8567L84.914 61.5154ZM56.9015 64.0489L54.2047 61.4433C52.7967 62.9006 52.8011 65.2129 54.2146 66.6648L56.9015 64.0489ZM64.3639 41.3105L67.0161 43.9616C67.0634 43.9142 67.1095 43.8656 67.1542 43.8158L64.3639 41.3105ZM85.8387 60.5917L88.6284 63.0977L88.6291 63.097L85.8387 60.5917ZM84.7145 61.7139L82.0699 59.0551C80.6288 60.4885 80.592 62.809 81.987 64.2874C83.3819 65.7658 85.7006 65.8637 87.2152 64.5083L84.7145 61.7139ZM5.80937 25.8507H90.9305V18.3507H5.80937V25.8507ZM98.4815 35.7609V88.2977H105.981V35.7609H98.4815ZM98.4815 88.2977C98.4815 87.2259 99.3503 86.3571 100.422 86.3571V93.8571C103.492 93.8571 105.981 91.3681 105.981 88.2977H98.4815ZM100.422 86.3571H5.80937V93.8571H100.422V86.3571ZM5.80937 86.3571C6.88115 86.3571 7.75 87.2259 7.75 88.2977H0.25C0.25 91.368 2.73901 93.8571 5.80937 93.8571V86.3571ZM7.75 88.2977V23.91H0.25V88.2977H7.75ZM7.75 23.91C7.75 24.9818 6.88115 25.8507 5.80937 25.8507V18.3507C2.73901 18.3507 0.25 20.8397 0.25 23.91H7.75ZM42.0778 88.7174L34.5205 107.607L41.4839 110.393L49.0412 91.5033L42.0778 88.7174ZM57.1895 91.5033L64.7468 110.393L71.7102 107.607L64.1529 88.7174L57.1895 91.5033ZM30.4467 112.749H75.7843V105.249H30.4467V112.749ZM82.253 58.8579C79.0152 62.1173 74.6435 64.2677 70.3906 64.7943C66.1819 65.3154 62.3374 64.2425 59.5879 61.4184L54.2141 66.6502C58.9279 71.492 65.2836 72.9839 71.3122 72.2374C77.2967 71.4964 83.1995 68.547 87.5739 64.1436L82.253 58.8579ZM59.5979 66.6399C62.4182 63.7208 64.0338 60.9598 64.8199 58.221C65.5995 55.5048 65.4665 53.1189 65.3002 51.2672C65.1194 49.253 64.9743 48.2341 65.1501 47.1503C65.2842 46.3233 65.6513 45.3117 67.0155 43.9469L61.7111 38.6447C59.3441 41.0127 58.1567 43.4224 57.7468 45.9495C57.3786 48.2199 57.7001 50.488 57.8302 51.9379C57.975 53.5502 57.9974 54.8055 57.611 56.1518C57.2311 57.4755 56.359 59.1983 54.2041 61.4286L59.5979 66.6399ZM67.1537 43.8011C69.0461 41.6934 71.6982 40.4238 74.5267 40.2715L74.1237 32.7824C69.3089 33.0415 64.7943 35.2027 61.573 38.7905L67.1537 43.8011ZM74.5267 40.2715C77.3552 40.1193 80.1284 41.0969 82.2361 42.9893L87.2467 37.4087C83.6589 34.1874 78.9384 32.5232 74.1237 32.7824L74.5267 40.2715ZM82.2361 42.9893C84.3438 44.8817 85.6134 47.5339 85.7656 50.3624L93.2548 49.9593C92.9957 45.1446 90.8345 40.6299 87.2467 37.4087L82.2361 42.9893ZM85.7656 50.3624C85.9179 53.1909 84.9403 55.964 83.0479 58.0717L88.6285 63.0823C91.8498 59.4946 93.5139 54.7741 93.2548 49.9593L85.7656 50.3624ZM83.0485 58.071C82.7854 58.3639 82.5065 58.6422 82.2132 58.9048L87.2147 64.4936C87.711 64.0494 88.1828 63.5785 88.6279 63.083L83.0485 58.071ZM87.3586 64.3578L87.5581 64.1594L82.2688 58.8421L82.0693 59.0405L87.3586 64.3578ZM121.328 4.21844C119.999 2.90886 118.418 1.88254 116.681 1.20155L113.944 8.18427C114.737 8.49506 115.458 8.96346 116.065 9.56114L121.328 4.21844ZM116.681 1.20155C114.943 0.520569 113.086 0.199084 111.221 0.256543L111.452 7.75299C112.303 7.72676 113.151 7.87348 113.944 8.18427L116.681 1.20155ZM111.221 0.256543C109.356 0.314001 107.522 0.74921 105.83 1.53584L108.991 8.33684C109.764 7.97783 110.601 7.77921 111.452 7.75299L111.221 0.256543ZM105.83 1.53584C104.138 2.32248 102.623 3.44418 101.377 4.8331L106.959 9.84166C107.528 9.20777 108.219 8.69584 108.991 8.33684L105.83 1.53584ZM101.373 4.83682L75.0398 34.2668L80.629 39.2679L106.962 9.83793L101.373 4.83682ZM91.6189 50.3087L120.751 24.2117L115.747 18.6254L86.6146 44.7223L91.6189 50.3087ZM120.752 24.2109C122.142 22.9651 123.264 21.4502 124.052 19.7578L117.251 16.5946C116.892 17.3667 116.38 18.0578 115.746 18.6262L120.752 24.2109ZM124.052 19.7578C124.839 18.0655 125.274 16.231 125.332 14.3655L117.835 14.1345C117.809 14.9856 117.61 15.8226 117.251 16.5946L124.052 19.7578ZM125.332 14.3655C125.389 12.4999 125.067 10.6421 124.386 8.90453L117.404 11.6431C117.715 12.4358 117.862 13.2834 117.835 14.1345L125.332 14.3655ZM124.386 8.90453C123.704 7.16695 122.677 5.5858 121.367 4.2568L116.026 9.52277C116.624 10.1291 117.093 10.8505 117.404 11.6431L124.386 8.90453ZM82.2536 58.8726C79.0157 62.132 74.644 64.2824 70.3912 64.8089C66.1825 65.3301 62.338 64.2572 59.5885 61.433L54.2146 66.6648C58.9285 71.5067 65.2841 72.9986 71.3128 72.2521C77.2972 71.5111 83.2001 68.5617 87.5744 64.1582L82.2536 58.8726ZM59.5984 66.6546C62.4187 63.7355 64.0343 60.9744 64.8205 58.2357C65.6001 55.5195 65.467 53.1336 65.3007 51.2819C65.1199 49.2677 64.9748 48.2488 65.1506 47.165C65.2848 46.3379 65.6519 45.3263 67.0161 43.9616L61.7116 38.6594C59.3447 41.0274 58.1572 43.4371 57.7474 45.9642C57.3791 48.2346 57.7006 50.5026 57.8308 51.9525C57.9755 53.5649 57.998 54.8202 57.6115 56.1665C57.2316 57.4902 56.3596 59.213 54.2047 61.4433L59.5984 66.6546ZM67.1542 43.8158C69.0466 41.7081 71.6988 40.4385 74.5273 40.2862L74.1242 32.7971C69.3094 33.0562 64.7948 35.2174 61.5735 38.8052L67.1542 43.8158ZM74.5273 40.2862C77.3558 40.134 80.1289 41.1116 82.2366 43.004L87.2472 37.4233C83.6594 34.202 78.9389 32.5379 74.1242 32.7971L74.5273 40.2862ZM82.2366 43.004C84.3443 44.8964 85.6139 47.5486 85.7662 50.3771L93.2553 49.974C92.9962 45.1592 90.835 40.6446 87.2472 37.4233L82.2366 43.004ZM85.7662 50.3771C85.9184 53.2056 84.9408 55.9787 83.0484 58.0864L88.6291 63.097C91.8504 59.5092 93.5145 54.7887 93.2553 49.974L85.7662 50.3771ZM83.049 58.0857C82.7859 58.3786 82.5071 58.6569 82.2137 58.9194L87.2152 64.5083C87.7116 64.0641 88.1833 63.5932 88.6284 63.0977L83.049 58.0857ZM87.359 64.3726L87.5585 64.1741L82.2694 58.8567L82.0699 59.0551L87.359 64.3726Z" fill="#0080FF"/>
</svg>
