<svg width="116" height="113" viewBox="0 0 116 113" fill="none" xmlns="http://www.w3.org/2000/svg">
<path d="M28.7922 100.922C29.6104 100.921 30.4103 101.158 31.0907 101.602C31.7711 102.046 32.3014 102.676 32.6147 103.415C32.9279 104.153 33.0099 104.965 32.8503 105.749C32.6907 106.532 32.2968 107.252 31.7182 107.817C31.1396 108.382 30.4025 108.767 29.6 108.922C28.7975 109.078 27.9657 108.998 27.2098 108.692C26.4539 108.386 25.8079 107.869 25.3535 107.204C24.899 106.54 24.6566 105.759 24.6568 104.96C24.6568 104.429 24.7638 103.904 24.9716 103.414C25.1794 102.924 25.484 102.479 25.868 102.104C26.252 101.729 26.7079 101.432 27.2096 101.229C27.7113 101.026 28.2491 100.922 28.7922 100.922Z" fill="#42BC5F"/>
<path d="M70.1497 100.922C70.9679 100.921 71.7678 101.158 72.4482 101.602C73.1286 102.046 73.659 102.676 73.9722 103.415C74.2854 104.153 74.3674 104.965 74.2078 105.749C74.0483 106.532 73.6543 107.252 73.0757 107.817C72.4972 108.382 71.76 108.767 70.9575 108.922C70.155 109.078 69.3232 108.998 68.5673 108.692C67.8115 108.386 67.1654 107.869 66.711 107.204C66.2566 106.54 66.0141 105.759 66.0144 104.96C66.0144 104.429 66.1213 103.904 66.3291 103.414C66.537 102.924 66.8416 102.479 67.2256 102.104C67.6096 101.729 68.0654 101.432 68.5672 101.229C69.0689 101.026 69.6066 100.922 70.1497 100.922Z" fill="#42BC5F"/>
<path d="M14.9021 60.5342V56.7842C14.8859 56.7842 14.8696 56.7843 14.8534 56.7845L14.9021 60.5342ZM82.5605 60.5342V64.2842C84.3416 64.2842 85.877 63.0313 86.2343 61.2865L82.5605 60.5342ZM90.8301 20.1504L94.5039 20.9027C94.7299 19.7991 94.4478 18.6524 93.7356 17.7796C93.0234 16.9068 91.9566 16.4004 90.8301 16.4004V20.1504ZM8.12201 20.1504L8.12201 16.4004L8.11021 16.4004L8.12201 20.1504ZM4.00003 24.2049L7.75003 24.2086C7.75004 24.2022 7.75003 24.1958 7.75 24.1893L4.00003 24.2049ZM4.06799 24.9163L0.386447 25.6296C0.390135 25.6486 0.393971 25.6676 0.397953 25.6866L4.06799 24.9163ZM10.8492 57.226L14.5459 56.5957C14.5379 56.5488 14.529 56.5022 14.5192 56.4557L10.8492 57.226ZM34.8482 35.8379C34.3345 33.8315 32.2916 32.6215 30.2853 33.1351C28.2789 33.6488 27.0688 35.6917 27.5825 37.698L34.8482 35.8379ZM29.5566 45.4089C30.0703 47.4153 32.1132 48.6254 34.1195 48.1117C36.1259 47.598 37.3359 45.5552 36.8223 43.5488L29.5566 45.4089ZM62.4877 37.698C63.0014 35.6917 61.7913 33.6488 59.7849 33.1351C57.7786 32.6215 55.7357 33.8315 55.222 35.8379L62.4877 37.698ZM53.2479 43.5488C52.7342 45.5552 53.9443 47.598 55.9507 48.1117C57.957 48.6254 59.9999 47.4153 60.5136 45.4089L53.2479 43.5488ZM87.2065 19.1792C86.6688 21.1793 87.8544 23.2365 89.8545 23.7741C91.8545 24.3117 93.9117 23.1261 94.4494 21.1261L87.2065 19.1792ZM94.3015 7.22988L97.923 8.20331C97.9412 8.13528 97.9576 8.06675 97.972 7.9978L94.3015 7.22988ZM98.3544 4L98.3533 7.75H98.3544V4ZM111.5 7.75C113.571 7.75 115.25 6.07107 115.25 4C115.25 1.92893 113.571 0.25 111.5 0.25V7.75ZM86.2277 61.2883C86.6432 59.2594 85.3352 57.2777 83.3063 56.8622C81.2773 56.4467 79.2957 57.7546 78.8802 59.7836L86.2277 61.2883ZM79.0803 77.4969L82.7512 78.2631C82.7521 78.2585 82.7531 78.2539 82.7541 78.2493L79.0803 77.4969ZM75.0274 80.7267L75.0301 76.9767H75.0274V80.7267ZM24.6568 76.9767C22.5857 76.9767 20.9068 78.6557 20.9068 80.7267C20.9068 82.7978 22.5857 84.4767 24.6568 84.4767V76.9767ZM28.7922 100.922L28.7922 104.672L28.7931 104.672L28.7922 100.922ZM24.6568 104.96L28.4068 104.961V104.96L24.6568 104.96ZM70.1497 100.922L70.1497 104.672L70.1507 104.672L70.1497 100.922ZM66.0144 104.96L69.7644 104.961V104.96H66.0144ZM14.9021 64.2842H82.5605V56.7842H14.9021V64.2842ZM86.2343 61.2865L94.5039 20.9027L87.1564 19.3981L78.8868 59.7819L86.2343 61.2865ZM90.8301 16.4004H8.12201V23.9004H90.8301V16.4004ZM8.11021 16.4004C7.08637 16.4036 6.07117 16.6038 5.12188 16.9915L7.95757 23.9347C8.01082 23.913 8.07097 23.9006 8.13382 23.9004L8.11021 16.4004ZM5.12188 16.9915C4.17245 17.3792 3.30485 17.9482 2.57094 18.6701L7.83027 24.017C7.86197 23.9858 7.90445 23.9564 7.95757 23.9347L5.12188 16.9915ZM2.57094 18.6701C1.83683 19.3922 1.25079 20.2533 0.850786 21.2067L7.76668 24.1084C7.77868 24.0798 7.79877 24.048 7.83027 24.017L2.57094 18.6701ZM0.850786 21.2067C0.450695 22.1602 0.245774 23.1846 0.250066 24.2204L7.75 24.1893C7.7499 24.164 7.75477 24.1368 7.76668 24.1084L0.850786 21.2067ZM0.250036 24.2012C0.24956 24.6807 0.295275 25.159 0.386447 25.6296L7.74953 24.2031C7.74982 24.2046 7.75003 24.2065 7.75003 24.2086L0.250036 24.2012ZM0.397953 25.6866L7.17917 57.9962L14.5192 56.4557L7.73803 24.1461L0.397953 25.6866ZM7.15256 57.8563C7.46633 59.6965 8.44167 61.3467 9.87686 62.5182L14.6194 56.708C14.5676 56.6658 14.5504 56.6223 14.5459 56.5957L7.15256 57.8563ZM9.87686 62.5182C11.31 63.688 13.1104 64.3078 14.9508 64.2839L14.8534 56.7845C14.7559 56.7858 14.6733 56.752 14.6194 56.708L9.87686 62.5182ZM27.5825 37.698L29.5566 45.4089L36.8223 43.5488L34.8482 35.8379L27.5825 37.698ZM55.222 35.8379L53.2479 43.5488L60.5136 45.4089L62.4877 37.698L55.222 35.8379ZM94.4494 21.1261L97.923 8.20331L90.6801 6.25644L87.2065 19.1792L94.4494 21.1261ZM97.972 7.9978C97.9814 7.95314 98.0099 7.89458 98.0756 7.84227L93.4014 1.97697C91.9899 3.10179 91.0033 4.68255 90.631 6.46195L97.972 7.9978ZM98.0756 7.84227C98.143 7.78853 98.2408 7.74997 98.3533 7.75L98.3555 0.25C96.5615 0.249472 94.811 0.853578 93.4014 1.97697L98.0756 7.84227ZM98.3544 7.75H111.5V0.25H98.3544V7.75ZM78.8802 59.7836L75.4066 76.7445L82.7541 78.2493L86.2277 61.2883L78.8802 59.7836ZM75.4094 76.7306C75.4002 76.7748 75.3719 76.8329 75.3066 76.885L79.9808 82.7503C81.3928 81.625 82.3796 80.0434 82.7512 78.2631L75.4094 76.7306ZM75.3066 76.885C75.2395 76.9384 75.1422 76.9768 75.0301 76.9767L75.0247 84.4767C76.8194 84.478 78.5707 83.8741 79.9808 82.7503L75.3066 76.885ZM75.0274 76.9767H24.6568V84.4767H75.0274V76.9767ZM28.7931 104.672C28.8892 104.671 28.976 104.7 29.0421 104.743L33.1392 98.4608C31.8445 97.6164 30.3316 97.1711 28.7912 97.1715L28.7931 104.672ZM29.0421 104.743C29.1073 104.785 29.1444 104.836 29.1626 104.879L36.0667 101.95C35.4585 100.516 34.4348 99.3058 33.1392 98.4608L29.0421 104.743ZM29.1626 104.879C29.1804 104.921 29.1835 104.962 29.1757 105L36.5249 106.497C36.8362 104.968 36.6754 103.384 36.0667 101.95L29.1626 104.879ZM29.1757 105C29.1678 105.039 29.1459 105.087 29.0983 105.134L34.3381 110.5C35.4477 109.416 36.2137 108.025 36.5249 106.497L29.1757 105ZM29.0983 105.134C29.0497 105.181 28.9772 105.223 28.8852 105.241L30.3148 112.604C31.8278 112.31 33.2295 111.582 34.3381 110.5L29.0983 105.134ZM28.8852 105.241C28.7928 105.259 28.6981 105.249 28.6164 105.216L25.8032 112.169C27.2333 112.747 28.8021 112.897 30.3148 112.604L28.8852 105.241ZM28.6164 105.216C28.5355 105.183 28.4806 105.134 28.4487 105.087L22.2582 109.321C23.1352 110.603 24.3724 111.59 25.8032 112.169L28.6164 105.216ZM28.4487 105.087C28.4176 105.042 28.4068 104.998 28.4068 104.961L20.9068 104.959C20.9064 106.52 21.3805 108.038 22.2582 109.321L28.4487 105.087ZM28.4068 104.96C28.4068 104.934 28.4118 104.907 28.4238 104.879L21.5193 101.95C21.1157 102.901 20.9068 103.924 20.9068 104.96L28.4068 104.96ZM28.4238 104.879C28.436 104.85 28.4562 104.818 28.488 104.787L23.2481 99.4213C22.5118 100.14 21.9228 100.999 21.5193 101.95L28.4238 104.879ZM28.488 104.787C28.5198 104.756 28.5625 104.727 28.6158 104.705L25.8035 97.7525C24.8533 98.1368 23.9842 98.7025 23.2481 99.4213L28.488 104.787ZM28.6158 104.705C28.6692 104.684 28.7294 104.672 28.7922 104.672L28.7922 97.1715C27.7688 97.1715 26.7535 97.3682 25.8035 97.7525L28.6158 104.705ZM70.1507 104.672C70.2467 104.671 70.3336 104.7 70.3997 104.743L74.4968 98.4608C73.2021 97.6164 71.6891 97.1711 70.1487 97.1715L70.1507 104.672ZM70.3997 104.743C70.4649 104.785 70.5019 104.836 70.5201 104.879L77.4242 101.95C76.816 100.516 75.7924 99.3058 74.4968 98.4608L70.3997 104.743ZM70.5201 104.879C70.5379 104.921 70.5411 104.962 70.5333 105L77.8824 106.497C78.1938 104.968 78.0329 103.384 77.4242 101.95L70.5201 104.879ZM70.5333 105C70.5253 105.039 70.5034 105.087 70.4558 105.134L75.6957 110.5C76.8052 109.416 77.5712 108.025 77.8824 106.497L70.5333 105ZM70.4558 105.134C70.4073 105.181 70.3347 105.223 70.2427 105.241L71.6723 112.604C73.1853 112.31 74.5871 111.582 75.6957 110.5L70.4558 105.134ZM70.2427 105.241C70.1504 105.259 70.0556 105.249 69.9739 105.216L67.1608 112.169C68.5909 112.747 70.1597 112.897 71.6723 112.604L70.2427 105.241ZM69.9739 105.216C69.893 105.183 69.8382 105.134 69.8063 105.087L63.6157 109.321C64.4927 110.603 65.7299 111.59 67.1608 112.169L69.9739 105.216ZM69.8063 105.087C69.7751 105.042 69.7643 104.998 69.7644 104.961L62.2644 104.959C62.2639 106.52 62.738 108.038 63.6157 109.321L69.8063 105.087ZM69.7644 104.96C69.7644 104.934 69.7693 104.907 69.7814 104.879L62.8769 101.95C62.4733 102.901 62.2644 103.924 62.2644 104.96H69.7644ZM69.7814 104.879C69.7935 104.85 69.8138 104.818 69.8455 104.787L64.6056 99.4213C63.8693 100.14 63.2804 100.999 62.8769 101.95L69.7814 104.879ZM69.8455 104.787C69.8774 104.756 69.9201 104.727 69.9733 104.705L67.161 97.7525C66.2108 98.1368 65.3417 98.7025 64.6056 99.4213L69.8455 104.787ZM69.9733 104.705C70.0267 104.684 70.0869 104.672 70.1497 104.672L70.1497 97.1715C69.1264 97.1715 68.1111 97.3682 67.161 97.7525L69.9733 104.705Z" fill="#42BC5F"/>
</svg>
