<svg width="119" height="119" viewBox="0 0 119 119" fill="none" xmlns="http://www.w3.org/2000/svg">
<g filter="url(#filter0_d_109_1568)">
<path d="M55.6569 62.1602L60.1674 72.9241C60.2847 73.2278 60.3403 73.5513 60.3309 73.8762C60.3216 74.2011 60.2476 74.521 60.1131 74.8176C59.9786 75.1142 59.7863 75.3817 59.5472 75.6047C59.308 75.8277 59.0268 76.0019 58.7195 76.1173L56.8132 76.8383C56.5061 76.9543 56.1789 77.0092 55.8504 77C55.5218 76.9908 55.1983 76.9176 54.8983 76.7846C54.5984 76.6516 54.3279 76.4615 54.1024 76.225C53.8769 75.9885 53.7007 75.7104 53.584 75.4065L48.1465 62.1602" stroke="#D70000" stroke-width="3" stroke-miterlimit="10" stroke-linejoin="round"/>
<path d="M42 55.9777C42 54.3386 42.6585 52.7666 43.8306 51.6076C45.0027 50.4486 46.5924 49.7974 48.25 49.7974H59.8334L72.8335 42V69.9554L59.8439 62.158H48.25C46.5924 62.158 45.0027 61.5069 43.8306 60.3478C42.6585 59.1888 42 57.6168 42 55.9777V55.9777Z" stroke="#D70000" stroke-width="3" stroke-miterlimit="10" stroke-linejoin="round"/>
<path d="M72.834 51.2734C75.1361 51.2734 77.0007 53.1996 77.0007 55.5687C77.0007 57.9378 75.1361 59.864 72.834 59.864" stroke="#D70000" stroke-width="3" stroke-miterlimit="10" stroke-linejoin="round"/>
</g>
<defs>
<filter id="filter0_d_109_1568" x="0.5" y="0.5" width="118.001" height="118" filterUnits="userSpaceOnUse" color-interpolation-filters="sRGB">
<feFlood flood-opacity="0" result="BackgroundImageFix"/>
<feColorMatrix in="SourceAlpha" type="matrix" values="0 0 0 0 0 0 0 0 0 0 0 0 0 0 0 0 0 0 127 0" result="hardAlpha"/>
<feOffset/>
<feGaussianBlur stdDeviation="20"/>
<feComposite in2="hardAlpha" operator="out"/>
<feColorMatrix type="matrix" values="0 0 0 0 0.286275 0 0 0 0 0.329412 0 0 0 0 0.898039 0 0 0 0.1 0"/>
<feBlend mode="normal" in2="BackgroundImageFix" result="effect1_dropShadow_109_1568"/>
<feBlend mode="normal" in="SourceGraphic" in2="effect1_dropShadow_109_1568" result="shape"/>
</filter>
</defs>
</svg>
