<svg width="127" height="122" viewBox="0 0 127 122" fill="none" xmlns="http://www.w3.org/2000/svg">
<g filter="url(#filter0_d_109_1555)">
<path d="M76.8959 48.5508H42.6548C42.2932 48.5508 42 48.844 42 49.2056V72.508C42 72.8697 42.2932 73.1629 42.6548 73.1629H76.8959C77.2576 73.1629 77.5508 72.8697 77.5508 72.508V49.2056C77.5508 48.844 77.2576 48.5508 76.8959 48.5508Z" stroke="#0080FF" stroke-width="3" stroke-linecap="round" stroke-linejoin="round"/>
<path d="M57.0407 73.1641L54.3057 80.0004" stroke="#0080FF" stroke-width="3" stroke-linecap="round" stroke-linejoin="round"/>
<path d="M62.5098 73.1641L65.2448 80.0004" stroke="#0080FF" stroke-width="3" stroke-linecap="round" stroke-linejoin="round"/>
<path d="M51.5713 80H67.9793" stroke="#0080FF" stroke-width="3" stroke-linecap="round" stroke-linejoin="round"/>
<g opacity="0.3">
<g opacity="0.3">
<path opacity="0.3" d="M71.2834 62.8114C68.5285 65.5847 63.8466 66.5027 61.1455 63.7283C64.7467 60.0011 61.1455 58.2009 63.8462 55.4991C64.7715 54.4684 66.0684 53.8476 67.4515 53.7732C68.8345 53.6987 70.1905 54.1768 71.2212 55.1021C72.2518 56.0275 72.8726 57.3243 72.9471 58.7074C73.0215 60.0905 72.5435 61.4465 71.6181 62.4771C71.49 62.6198 71.3541 62.7553 71.2112 62.8832L71.2834 62.8114Z" fill="#0080FF"/>
</g>
</g>
<path d="M83.5097 43.0458C83.1593 42.7007 82.7427 42.4302 82.2848 42.2508C81.827 42.0713 81.3375 41.9866 80.846 42.0017C80.3544 42.0169 79.8711 42.1316 79.4251 42.3389C78.9792 42.5462 78.58 42.8418 78.2516 43.2078L68.5645 54.0117C69.603 54.2175 70.5525 54.7395 71.2827 55.5062C71.9399 56.1603 72.4177 56.9727 72.6699 57.865L83.3477 48.3039C83.7139 47.9756 84.0097 47.5764 84.2171 47.1305C84.4245 46.6846 84.5393 46.2012 84.5545 45.7096C84.5696 45.218 84.4848 44.7284 84.3052 44.2706C84.1256 43.8127 83.855 43.396 83.5097 43.0458Z" fill="#D1E9FF"/>
<path d="M83.5097 43.0458C83.1593 42.7007 82.7427 42.4302 82.2848 42.2508C81.827 42.0713 81.3375 41.9866 80.846 42.0017C80.3544 42.0169 79.8711 42.1316 79.4251 42.3389C78.9792 42.5462 78.58 42.8418 78.2516 43.2078L68.5645 54.0117C69.603 54.2175 70.5525 54.7395 71.2827 55.5062C71.9399 56.1603 72.4177 56.9727 72.6699 57.865L83.3477 48.3039C83.7139 47.9756 84.0097 47.5764 84.2171 47.1305C84.4245 46.6846 84.5393 46.2012 84.5545 45.7096C84.5696 45.218 84.4848 44.7284 84.3052 44.2706C84.1256 43.8127 83.855 43.396 83.5097 43.0458V43.0458Z" stroke="#0080FF" stroke-width="3" stroke-linecap="round" stroke-linejoin="round"/>
<path d="M71.2834 62.8153C68.5285 65.5886 63.8466 66.5066 61.1455 63.7322C64.7467 60.005 61.1455 58.2048 63.8462 55.503C64.7715 54.4723 66.0684 53.8515 67.4515 53.7771C68.8345 53.7026 70.1905 54.1807 71.2212 55.106C72.2518 56.0314 72.8726 57.3282 72.9471 58.7113C73.0215 60.0944 72.5435 61.4504 71.6181 62.481C71.49 62.6237 71.3541 62.7592 71.2112 62.8871L71.2834 62.8153Z" fill="#D1E9FF" stroke="#0080FF" stroke-width="3" stroke-linecap="round" stroke-linejoin="round"/>
</g>
<defs>
<filter id="filter0_d_109_1555" x="0.5" y="0.5" width="125.557" height="121" filterUnits="userSpaceOnUse" color-interpolation-filters="sRGB">
<feFlood flood-opacity="0" result="BackgroundImageFix"/>
<feColorMatrix in="SourceAlpha" type="matrix" values="0 0 0 0 0 0 0 0 0 0 0 0 0 0 0 0 0 0 127 0" result="hardAlpha"/>
<feOffset/>
<feGaussianBlur stdDeviation="20"/>
<feComposite in2="hardAlpha" operator="out"/>
<feColorMatrix type="matrix" values="0 0 0 0 0.286275 0 0 0 0 0.329412 0 0 0 0 0.898039 0 0 0 0.1 0"/>
<feBlend mode="normal" in2="BackgroundImageFix" result="effect1_dropShadow_109_1555"/>
<feBlend mode="normal" in="SourceGraphic" in2="effect1_dropShadow_109_1555" result="shape"/>
</filter>
</defs>
</svg>
