<svg width="70" height="70" viewBox="0 0 70 70" fill="none" xmlns="http://www.w3.org/2000/svg">
<rect width="70" height="70" rx="12" fill="#FFECFB"/>
<path d="M17.4839 17H51.5144C51.7094 16.9998 51.9025 17.038 52.0828 17.1125C52.263 17.1869 52.4268 17.2962 52.5648 17.434C52.7027 17.5719 52.8122 17.7355 52.8869 17.9157C52.9616 18.0958 53 18.289 53 18.484V52.5165C53 52.9099 52.8437 53.2873 52.5655 53.5655C52.2873 53.8437 51.91 54 51.5165 54H17.4839C17.0903 54 16.7129 53.8437 16.4346 53.5654C16.1563 53.287 16 52.9096 16 52.516V18.484C16 18.0904 16.1563 17.7129 16.4346 17.4346C16.7129 17.1563 17.0903 17 17.4839 17V17Z" stroke="#FF00C7" stroke-width="3" stroke-linecap="round" stroke-linejoin="round"/>
<path d="M16 26.9609H52.9978" stroke="#FF00C7" stroke-width="3" stroke-linecap="round" stroke-linejoin="round"/>
<path d="M26.5191 35.4961L22.25 39.7654L26.5191 44.0347" stroke="#FF00C7" stroke-width="3" stroke-linecap="round" stroke-linejoin="round"/>
<path d="M42.1719 35.4961L46.441 39.7654L42.1719 44.0347" stroke="#FF00C7" stroke-width="3" stroke-linecap="round" stroke-linejoin="round"/>
<path d="M32.2109 45.4603L36.48 32.6523" stroke="#FF00C7" stroke-width="3" stroke-linecap="round" stroke-linejoin="round"/>
</svg>
