<svg width="113" height="113" viewBox="0 0 113 113" fill="none" xmlns="http://www.w3.org/2000/svg">
<path d="M4 32.2675H108.994M33.8514 56.4889L21.7365 68.6045L33.8514 80.7202M78.2715 56.4889L90.3865 68.6045L78.2715 80.7202M50.004 84.7657L62.1189 48.4188M8.21105 4H104.784C105.337 3.99936 105.886 4.10781 106.397 4.31916C106.909 4.53051 107.373 4.84061 107.765 5.23173C108.156 5.62285 108.467 6.08731 108.679 6.59857C108.891 7.10983 109 7.65785 109 8.2113V104.79C109 105.907 108.556 106.977 107.767 107.767C106.977 108.556 105.907 109 104.79 109H8.21105C7.09421 109 6.02311 108.556 5.23339 107.767C4.44366 106.977 4 105.906 4 104.789V8.2113C4 7.0944 4.44366 6.02324 5.23339 5.23346C6.02311 4.44369 7.09421 4 8.21105 4Z" stroke="#FF00C7" stroke-width="7.5" stroke-linecap="round" stroke-linejoin="round"/>
</svg>
