<svg width="127" height="127" viewBox="0 0 127 127" fill="none" xmlns="http://www.w3.org/2000/svg">
<g filter="url(#filter0_d_109_1537)">
<path d="M46.3521 65.1516H73.4218L76.7304 48.6055H43.6394C43.422 48.6062 43.2069 48.6497 43.0064 48.7336C42.8058 48.8175 42.6237 48.94 42.4706 49.0943C42.3174 49.2486 42.1962 49.4315 42.1138 49.6327C42.0313 49.8339 41.9894 50.0493 41.9902 50.2667C41.9902 50.3645 41.9993 50.4621 42.0174 50.5582L44.7306 63.7962C44.7942 64.1786 44.9928 64.5256 45.2903 64.7742C45.5877 65.0229 45.9644 65.1568 46.3521 65.1516Z" stroke="#42BC5F" stroke-width="3" stroke-linecap="round" stroke-linejoin="round"/>
<path d="M52.8789 55.4141L53.6687 58.5734" stroke="#42BC5F" stroke-width="3" stroke-linecap="round" stroke-linejoin="round"/>
<path d="M63.9373 55.4141L63.1475 58.5734" stroke="#42BC5F" stroke-width="3" stroke-linecap="round" stroke-linejoin="round"/>
<path d="M76.7295 48.6064L78.1193 43.3116C78.1956 42.938 78.3987 42.6021 78.6942 42.361C78.9897 42.1198 79.3594 41.9882 79.7408 41.9883H85.0003" stroke="#42BC5F" stroke-width="3" stroke-linecap="round" stroke-linejoin="round"/>
<path d="M73.4191 65.1523L72.0294 72.1016C71.9532 72.4754 71.7501 72.8113 71.4546 73.0525C71.1591 73.2937 70.7893 73.4253 70.4078 73.425H50.2549" stroke="#42BC5F" stroke-width="3" stroke-linecap="round" stroke-linejoin="round"/>
<path d="M51.9094 81.6992C52.2368 81.6991 52.5568 81.7961 52.829 81.9779C53.1013 82.1598 53.3134 82.4182 53.4388 82.7207C53.5641 83.0231 53.5969 83.3559 53.533 83.6769C53.4692 83.998 53.3116 84.293 53.0801 84.5244C52.8486 84.7559 52.5537 84.9135 52.2326 84.9774C51.9115 85.0412 51.5787 85.0084 51.2763 84.8831C50.9739 84.7578 50.7154 84.5456 50.5336 84.2734C50.3518 84.0011 50.2548 83.6811 50.2549 83.3537C50.2549 83.1365 50.2977 82.9213 50.3808 82.7206C50.464 82.5198 50.5858 82.3375 50.7395 82.1838C50.8931 82.0302 51.0755 81.9083 51.2762 81.8252C51.477 81.742 51.6921 81.6992 51.9094 81.6992Z" fill="#42BC5F" stroke="#42BC5F" stroke-width="3" stroke-linecap="round" stroke-linejoin="round"/>
<path d="M68.4563 81.6992C68.7836 81.6991 69.1037 81.7961 69.3759 81.9779C69.6481 82.1598 69.8603 82.4182 69.9856 82.7207C70.111 83.0231 70.1438 83.3559 70.0799 83.6769C70.0161 83.998 69.8584 84.293 69.627 84.5244C69.3955 84.7559 69.1006 84.9135 68.7795 84.9774C68.4584 85.0412 68.1256 85.0084 67.8232 84.8831C67.5208 84.7578 67.2623 84.5456 67.0805 84.2734C66.8987 84.0011 66.8017 83.6811 66.8018 83.3537C66.8018 83.1365 66.8446 82.9213 66.9277 82.7206C67.0108 82.5198 67.1327 82.3375 67.2864 82.1838C67.44 82.0302 67.6224 81.9083 67.8231 81.8252C68.0239 81.742 68.239 81.6992 68.4563 81.6992V81.6992Z" fill="#42BC5F" stroke="#42BC5F" stroke-width="3" stroke-linecap="round" stroke-linejoin="round"/>
</g>
<defs>
<filter id="filter0_d_109_1537" x="0.490234" y="0.488281" width="126.01" height="126.02" filterUnits="userSpaceOnUse" color-interpolation-filters="sRGB">
<feFlood flood-opacity="0" result="BackgroundImageFix"/>
<feColorMatrix in="SourceAlpha" type="matrix" values="0 0 0 0 0 0 0 0 0 0 0 0 0 0 0 0 0 0 127 0" result="hardAlpha"/>
<feOffset/>
<feGaussianBlur stdDeviation="20"/>
<feComposite in2="hardAlpha" operator="out"/>
<feColorMatrix type="matrix" values="0 0 0 0 0.286275 0 0 0 0 0.329412 0 0 0 0 0.898039 0 0 0 0.1 0"/>
<feBlend mode="normal" in2="BackgroundImageFix" result="effect1_dropShadow_109_1537"/>
<feBlend mode="normal" in="SourceGraphic" in2="effect1_dropShadow_109_1537" result="shape"/>
</filter>
</defs>
</svg>
