<svg width="69" height="113" viewBox="0 0 69 113" fill="none" xmlns="http://www.w3.org/2000/svg">
<path d="M23.1948 45.228C21.6786 43.8172 19.3057 43.9026 17.8949 45.4189C16.4841 46.9351 16.5695 49.3079 18.0857 50.7187L23.1948 45.228ZM29.163 55.9038L31.9084 58.4583C32.5859 57.7302 32.9464 56.7628 32.9106 55.7689C32.8748 54.775 32.4457 53.836 31.7176 53.1585L29.163 55.9038ZM18.4873 61.872C17.0764 63.3882 17.1619 65.7611 18.6781 67.1719C20.1943 68.5827 22.5671 68.4973 23.9779 66.9811L18.4873 61.872ZM35.1987 60.5727C33.1276 60.5727 31.4487 62.2516 31.4487 64.3227C31.4487 66.3938 33.1276 68.0727 35.1987 68.0727V60.5727ZM49.7585 68.0727C51.8296 68.0727 53.5085 66.3938 53.5085 64.3227C53.5085 62.2516 51.8296 60.5727 49.7585 60.5727V68.0727ZM13.6511 7.75H54.6683V0.25H13.6511V7.75ZM60.5694 13.6511V88.1791H68.0694V13.6511H60.5694ZM54.6683 94.0802H13.6511V101.58H54.6683V94.0802ZM7.75 88.1791V13.6511H0.25V88.1791H7.75ZM13.6511 94.0802C10.392 94.0802 7.75 91.4382 7.75 88.1791H0.25C0.25 95.5803 6.24988 101.58 13.6511 101.58V94.0802ZM60.5694 88.1791C60.5694 91.4382 57.9274 94.0802 54.6683 94.0802V101.58C62.0695 101.58 68.0694 95.5803 68.0694 88.1791H60.5694ZM54.6683 7.75C57.9274 7.75 60.5694 10.392 60.5694 13.6511H68.0694C68.0694 6.24988 62.0695 0.25 54.6683 0.25V7.75ZM13.6511 0.25C6.24988 0.25 0.25 6.24988 0.25 13.6511H7.75C7.75 10.392 10.392 7.75 13.6511 7.75V0.25ZM13.6511 18.9198H54.6683V11.4198H13.6511V18.9198ZM60.5694 24.8209V99.3489H68.0694V24.8209H60.5694ZM54.6683 105.25H13.6511V112.75H54.6683V105.25ZM7.75 99.3489V24.8209H0.25V99.3489H7.75ZM13.6511 105.25C10.392 105.25 7.75 102.608 7.75 99.3489H0.25C0.25 106.75 6.24988 112.75 13.6511 112.75V105.25ZM60.5694 99.3489C60.5694 102.608 57.9274 105.25 54.6683 105.25V112.75C62.0695 112.75 68.0694 106.75 68.0694 99.3489H60.5694ZM54.6683 18.9198C57.9274 18.9198 60.5694 21.5618 60.5694 24.8209H68.0694C68.0694 17.4197 62.0695 11.4198 54.6683 11.4198V18.9198ZM13.6511 11.4198C6.24988 11.4198 0.25 17.4197 0.25 24.8209H7.75C7.75 21.5618 10.392 18.9198 13.6511 18.9198V11.4198ZM18.0857 50.7187L26.6085 58.6491L31.7176 53.1585L23.1948 45.228L18.0857 50.7187ZM26.4177 53.3493L18.4873 61.872L23.9779 66.9811L31.9084 58.4583L26.4177 53.3493ZM35.1987 68.0727H49.7585V60.5727H35.1987V68.0727Z" fill="#F09637"/>
</svg>
