<svg width="70" height="70" viewBox="0 0 70 70" fill="none" xmlns="http://www.w3.org/2000/svg">
<rect width="70" height="70" rx="12" fill="#D1E9FF"/>
<path d="M50.8959 22.5508H16.6548C16.2932 22.5508 16 22.844 16 23.2056V46.508C16 46.8697 16.2932 47.1629 16.6548 47.1629H50.8959C51.2576 47.1629 51.5508 46.8697 51.5508 46.508V23.2056C51.5508 22.844 51.2576 22.5508 50.8959 22.5508Z" stroke="#0080FF" stroke-width="3" stroke-linecap="round" stroke-linejoin="round"/>
<path d="M31.0397 47.1641L28.3047 54.0004" stroke="#0080FF" stroke-width="3" stroke-linecap="round" stroke-linejoin="round"/>
<path d="M36.5098 47.1641L39.2448 54.0004" stroke="#0080FF" stroke-width="3" stroke-linecap="round" stroke-linejoin="round"/>
<path d="M25.5703 54H41.9784" stroke="#0080FF" stroke-width="3" stroke-linecap="round" stroke-linejoin="round"/>
<g opacity="0.3">
<g opacity="0.3">
<path opacity="0.3" d="M45.2825 36.8114C42.5275 39.5847 37.8456 40.5027 35.1445 37.7283C38.7457 34.0011 35.1445 32.2009 37.8452 29.4991C38.7705 28.4684 40.0674 27.8476 41.4505 27.7732C42.8336 27.6987 44.1896 28.1768 45.2202 29.1021C46.2508 30.0275 46.8716 31.3243 46.9461 32.7074C47.0205 34.0905 46.5425 35.4465 45.6171 36.4771C45.489 36.6198 45.3532 36.7553 45.2103 36.8832L45.2825 36.8114Z" fill="#0080FF"/>
</g>
</g>
<path d="M57.5097 17.0458C57.1593 16.7007 56.7427 16.4302 56.2848 16.2508C55.827 16.0713 55.3375 15.9866 54.846 16.0017C54.3544 16.0169 53.8711 16.1316 53.4251 16.3389C52.9792 16.5462 52.58 16.8418 52.2516 17.2078L42.5645 28.0117C43.603 28.2175 44.5525 28.7395 45.2827 29.5062C45.9399 30.1603 46.4177 30.9727 46.6699 31.865L57.3477 22.3039C57.7139 21.9756 58.0097 21.5764 58.2171 21.1305C58.4245 20.6846 58.5393 20.2012 58.5545 19.7096C58.5696 19.218 58.4848 18.7284 58.3052 18.2706C58.1256 17.8127 57.855 17.396 57.5097 17.0458Z" fill="#D1E9FF"/>
<path d="M57.5097 17.0458C57.1593 16.7007 56.7427 16.4302 56.2848 16.2508C55.827 16.0713 55.3375 15.9866 54.846 16.0017C54.3544 16.0169 53.8711 16.1316 53.4251 16.3389C52.9792 16.5462 52.58 16.8418 52.2516 17.2078L42.5645 28.0117C43.603 28.2175 44.5525 28.7395 45.2827 29.5062C45.9399 30.1603 46.4177 30.9727 46.6699 31.865L57.3477 22.3039C57.7139 21.9756 58.0097 21.5764 58.2171 21.1305C58.4245 20.6846 58.5393 20.2012 58.5545 19.7096C58.5696 19.218 58.4848 18.7284 58.3052 18.2706C58.1256 17.8127 57.855 17.396 57.5097 17.0458V17.0458Z" stroke="#0080FF" stroke-width="3" stroke-linecap="round" stroke-linejoin="round"/>
<path d="M45.2825 36.8153C42.5275 39.5886 37.8456 40.5066 35.1445 37.7322C38.7457 34.005 35.1445 32.2048 37.8452 29.503C38.7705 28.4723 40.0674 27.8515 41.4505 27.7771C42.8336 27.7026 44.1896 28.1807 45.2202 29.106C46.2508 30.0314 46.8716 31.3282 46.9461 32.7113C47.0205 34.0944 46.5425 35.4504 45.6171 36.481C45.489 36.6237 45.3532 36.7592 45.2103 36.8871L45.2825 36.8153Z" fill="#D1E9FF" stroke="#0080FF" stroke-width="3" stroke-linecap="round" stroke-linejoin="round"/>
</svg>
