<svg width="28" height="28" viewBox="0 0 28 28" fill="none" xmlns="http://www.w3.org/2000/svg">
<path d="M14.0035 6.82393C12.584 6.82431 11.1964 7.24571 10.0164 8.03486C8.83628 8.824 7.91667 9.94543 7.37381 11.2573C6.83096 12.5692 6.68925 14.0127 6.96661 15.4052C7.24397 16.7976 7.92793 18.0765 8.93201 19.0802C9.93608 20.0839 11.2152 20.7672 12.6075 21.0437C13.9999 21.3203 15.4429 21.1776 16.7542 20.6338C18.0655 20.0901 19.1862 19.1695 19.9744 17.9887C20.7626 16.8079 21.1831 15.4198 21.1826 14C21.1837 13.0569 20.9987 12.1229 20.6383 11.2515C20.2778 10.3801 19.749 9.58836 19.0821 8.92172C18.4151 8.25508 17.6233 7.72663 16.7518 7.36665C15.8803 7.00667 14.9464 6.82224 14.0035 6.82393V6.82393ZM14.0035 18.6699C13.0806 18.6699 12.1784 18.3962 11.411 17.8833C10.6436 17.3705 10.0455 16.6415 9.69233 15.7887C9.33914 14.9358 9.24673 13.9974 9.42678 13.092C9.60684 12.1866 10.0513 11.355 10.7039 10.7022C11.3565 10.0495 12.188 9.60497 13.0931 9.42488C13.9983 9.24479 14.9366 9.33722 15.7893 9.69048C16.6419 10.0437 17.3707 10.642 17.8835 11.4095C18.3962 12.1771 18.6699 13.0794 18.6699 14.0026C18.6677 15.2397 18.1754 16.4256 17.3007 17.3005C16.4261 18.1753 15.2404 18.6677 14.0035 18.6699ZM23.1482 6.52762C23.1482 6.85874 23.05 7.18242 22.8661 7.45774C22.6822 7.73306 22.4208 7.94764 22.1149 8.07436C21.8091 8.20107 21.4725 8.23423 21.1478 8.16963C20.8231 8.10503 20.5249 7.94558 20.2908 7.71144C20.0567 7.4773 19.8973 7.17899 19.8327 6.85423C19.7681 6.52947 19.8013 6.19285 19.9279 5.88693C20.0546 5.58102 20.2692 5.31955 20.5444 5.13558C20.8197 4.95162 21.1433 4.85343 21.4744 4.85343C21.6943 4.85293 21.9122 4.89589 22.1155 4.97984C22.3188 5.0638 22.5035 5.1871 22.6591 5.34266C22.8146 5.49822 22.9379 5.68299 23.0218 5.88634C23.1058 6.08969 23.1487 6.30762 23.1482 6.52762ZM27.901 8.22676C27.7948 5.98683 27.2829 3.99714 25.6398 2.36008C23.9966 0.723015 22.0144 0.211033 19.7749 0.0983966C17.4638 -0.0327989 10.5362 -0.0327989 8.22507 0.0983966C5.9888 0.204633 4.00208 0.716615 2.35959 2.35368C0.717108 3.99074 0.210989 5.97787 0.0983764 8.221C-0.0327921 10.5326 -0.0327921 17.4616 0.0983764 19.7732C0.204591 22.0132 0.716468 24.0029 2.35959 25.6399C4.00272 27.277 5.9824 27.789 8.22507 27.9016C10.5362 28.0328 17.4638 28.0328 19.7749 27.9016C22.0144 27.7954 24.0037 27.2834 25.6404 25.6399C27.2771 23.9965 27.789 22.0164 27.9016 19.7732C28.0328 17.4616 28.0328 10.539 27.9016 8.2274L27.901 8.22676ZM24.9161 22.2532C24.6786 22.8555 24.3198 23.4026 23.862 23.8605C23.4042 24.3184 22.8572 24.6772 22.255 24.9148C20.4122 25.6457 16.0395 25.4774 14.001 25.4774C11.9624 25.4774 7.58586 25.6399 5.74694 24.9148C5.1447 24.6772 4.59772 24.3184 4.13994 23.8605C3.68216 23.4026 3.32337 22.8555 3.08582 22.2532C2.35511 20.41 2.52339 16.0364 2.52339 13.9974C2.52339 11.9585 2.36087 7.58102 3.08582 5.74172C3.32445 5.13988 3.6842 4.59351 4.14275 4.13652C4.60129 3.67954 5.14884 3.32168 5.75142 3.08517C7.59418 2.35432 11.9669 2.52263 14.0054 2.52263C16.044 2.52263 20.4205 2.36008 22.2595 3.08517C22.8617 3.32277 23.4087 3.68164 23.8665 4.13951C24.3242 4.59738 24.683 5.14448 24.9206 5.74684C25.6513 7.58998 25.483 11.9636 25.483 14.0026C25.483 16.0415 25.6468 20.4164 24.9161 22.2532Z" fill="white"/>
</svg>
