<svg width="392" height="89" viewBox="0 0 392 89" fill="none" xmlns="http://www.w3.org/2000/svg">
<path d="M63.0806 0.808594C64.4206 1.00859 65.7606 1.17859 67.0806 1.41859C74.7806 2.81859 81.1607 6.53859 86.1707 12.5086C91.8507 19.2686 94.2706 27.1586 93.5706 35.9086C92.5206 49.0986 83.3107 60.3086 70.5607 64.2286C67.3907 65.1986 64.1506 65.6486 60.8406 65.6486C51.1406 65.6486 41.4507 65.6586 31.7507 65.6286C31.0007 65.6286 30.7407 65.8586 30.5507 66.5586C29.2007 71.6686 27.8007 76.7686 26.4307 81.8786C25.3107 86.0386 21.7706 88.7886 17.4706 88.8086C12.6406 88.8286 7.80065 88.8086 2.97065 88.8086C1.33065 88.8086 0.820636 88.1286 1.21064 86.5186C4.26064 74.1486 7.30065 61.7886 10.3507 49.4186C10.8807 47.2686 11.4006 45.1186 11.9406 42.9686C12.1806 42.0186 12.6907 41.6086 13.6507 41.5686C13.9107 41.5586 14.1707 41.5686 14.4307 41.5686C30.0307 41.5686 45.6307 41.5686 61.2307 41.5686C65.3007 41.5686 68.5207 39.0386 69.3707 35.2386C70.5307 30.0386 66.7407 25.2486 61.4007 25.2386C47.3707 25.2186 33.3307 25.2386 19.3007 25.2186C15.4907 25.2186 11.7206 24.8786 8.19062 23.3086C3.23062 21.1086 0.580661 17.2486 0.360661 11.8486C0.230661 8.76859 0.340724 5.68859 0.300724 2.60859C0.290724 1.79859 0.520685 1.18859 1.26069 0.828594H63.0407L63.0806 0.808594Z" fill="white"/>
<path d="M257.762 62.5598C255.892 64.3398 253.842 65.5898 251.402 66.0998C244.942 67.4498 239.162 64.0398 237.412 57.6798C235.882 52.1198 236.542 46.7698 239.912 41.9898C242.952 37.6798 247.242 35.5998 252.542 35.7298C256.462 35.8198 259.692 37.2898 261.892 40.6598C261.932 40.7198 262.002 40.7598 262.162 40.8998C262.462 39.5098 262.762 38.2098 263.032 36.8998C263.732 33.4498 264.422 30.0098 265.102 26.5498C265.252 25.7998 265.652 25.5098 266.402 25.5198C268.602 25.5498 270.792 25.5198 272.992 25.5298C273.892 25.5298 274.112 25.8098 273.932 26.6798C273.102 30.7898 272.272 34.8998 271.432 39.0098C269.722 47.4098 268.012 55.8098 266.312 64.2098C266.112 65.1898 265.942 65.3398 264.962 65.3498C262.742 65.3498 260.522 65.3498 258.302 65.3498C257.462 65.3498 257.282 65.1098 257.432 64.2998C257.542 63.7198 257.662 63.1398 257.772 62.5598H257.762ZM254.542 43.2398C254.442 43.2498 254.152 43.2698 253.872 43.3198C248.732 44.2598 245.952 49.2198 246.632 53.6298C247.072 56.4698 248.712 58.0398 251.572 58.3398C254.172 58.6098 256.152 57.3698 257.812 55.5398C259.912 53.2298 259.962 50.3298 260.072 47.4498C260.072 47.3298 260.022 47.1998 259.982 47.0698C259.292 44.6298 257.382 43.2398 254.542 43.2398Z" fill="white"/>
<path d="M210.18 41.0173C210.57 39.1673 210.93 37.4973 211.28 35.8073C211.92 32.6973 212.55 29.5773 213.16 26.4573C213.29 25.7973 213.64 25.5273 214.29 25.5273C216.59 25.5273 218.89 25.5273 221.19 25.5273C221.91 25.5273 222.12 25.8173 221.98 26.4973C219.44 39.0573 216.89 51.6173 214.35 64.1873C214.15 65.1873 213.95 65.3473 212.93 65.3473C210.73 65.3473 208.54 65.3473 206.34 65.3473C205.44 65.3473 205.29 65.1473 205.46 64.2673C205.57 63.7273 205.66 63.1973 205.76 62.6573C205.76 62.6373 205.74 62.6073 205.7 62.4673C205.4 62.7473 205.13 63.0073 204.86 63.2573C199.01 68.6673 188.3 67.1473 185.57 58.0673C183.85 52.3473 184.49 46.8173 188.02 41.8773C191.03 37.6573 195.27 35.6373 200.48 35.7173C204.53 35.7873 207.81 37.3473 210.19 41.0073L210.18 41.0173ZM207.89 48.8873C208.22 45.1873 205.13 42.6073 201.35 43.3973C196.46 44.4173 193.79 49.1973 194.4 53.5373C194.81 56.4473 196.47 58.0773 199.4 58.3373C202.21 58.5973 204.31 57.2073 205.94 55.0673C207.31 53.2673 207.86 51.1673 207.89 48.8773V48.8873Z" fill="white"/>
<path d="M130.341 52.1487C128.691 52.1487 127.051 52.1587 125.401 52.1487C124.961 52.1487 124.761 52.2687 124.671 52.7287C124.011 56.0787 123.321 59.4187 122.621 62.7587C122.511 63.2887 122.361 63.8287 122.121 64.3087C121.681 65.1887 121.011 65.4187 120.001 65.3887C117.941 65.3287 115.871 65.3687 113.811 65.3587C112.641 65.3587 112.541 65.2287 112.771 64.0687C115.241 51.5487 117.711 39.0287 120.171 26.5087C120.301 25.8287 120.661 25.5287 121.351 25.5287C126.841 25.5487 132.331 25.4287 137.811 25.6087C141.851 25.7387 145.491 27.0587 148.121 30.3887C149.851 32.5787 150.461 35.1487 150.501 37.8587C150.561 41.7987 149.261 45.2387 146.321 47.9487C144.161 49.9487 141.551 51.2087 138.671 51.6387C135.921 52.0487 133.121 52.1287 130.341 52.3487L130.321 52.1487H130.341ZM126.291 43.7387C126.511 43.7887 126.631 43.8387 126.751 43.8387C129.391 43.8387 132.021 43.8887 134.661 43.8287C136.271 43.7887 137.851 43.4187 139.061 42.2487C140.691 40.6787 141.301 38.7087 140.691 36.5387C140.121 34.4987 138.431 33.7387 136.481 33.6487C133.931 33.5387 131.371 33.5687 128.811 33.5787C128.641 33.5787 128.361 33.8887 128.311 34.0987C127.961 35.6487 127.661 37.2087 127.341 38.7587C127.001 40.4087 126.651 42.0487 126.291 43.7287V43.7387Z" fill="white"/>
<path d="M378.011 63.3976C377.341 63.8576 376.811 64.2676 376.241 64.6076C371.831 67.2976 367.291 67.4676 362.791 64.9676C359.641 63.2176 358.101 60.2576 357.781 56.7376C357.031 48.4576 361.911 40.7876 369.671 37.8876C372.831 36.7076 376.051 36.4176 379.201 37.8076C380.431 38.3476 381.511 39.2476 382.681 39.9876C382.801 39.4776 382.991 38.8376 383.101 38.1776C383.191 37.6176 383.491 37.4576 384.011 37.4676C386.131 37.4876 388.241 37.4676 390.361 37.4676C391.231 37.4676 391.541 37.8676 391.351 38.7676C390.741 41.8376 390.121 44.8976 389.501 47.9576C388.311 53.8076 387.111 59.6476 385.951 65.4976C385.821 66.1776 385.531 66.3976 384.861 66.3876C382.741 66.3576 380.631 66.3876 378.511 66.3776C377.681 66.3776 377.481 66.1076 377.641 65.2676C377.761 64.6876 377.861 64.0976 378.001 63.3776L378.011 63.3976ZM372.581 59.1376C374.051 59.2876 375.291 58.4076 376.551 57.5576C379.411 55.6376 380.591 52.0576 379.761 48.7576C378.901 45.2976 374.601 44.2276 372.091 45.4776C369.101 46.9676 366.551 50.3776 367.051 54.3676C367.401 57.1376 369.591 59.1376 372.571 59.1476L372.581 59.1376Z" fill="white"/>
<path d="M346.401 42.5286C347.981 40.2786 349.461 38.1586 350.941 36.0586C353.101 32.9886 355.281 29.9186 357.431 26.8386C357.701 26.4486 358.001 26.3086 358.461 26.3086C361.671 26.3286 364.891 26.3086 368.101 26.3286C368.401 26.3286 368.841 26.4286 368.971 26.6286C369.201 27.0086 369.231 27.4286 368.861 27.8886C362.811 35.6486 356.791 43.4286 350.791 51.2286C350.441 51.6786 350.181 52.2586 350.061 52.8186C349.281 56.7286 348.551 60.6486 347.801 64.5586C347.511 66.0886 346.781 66.6686 345.191 66.6786C343.071 66.6786 340.961 66.6786 338.841 66.6786C337.661 66.6786 337.461 66.4386 337.691 65.2786C338.541 60.9086 339.411 56.5386 340.251 52.1686C340.311 51.8786 340.291 51.5386 340.191 51.2686C337.021 43.2486 333.831 35.2386 330.641 27.2286C330.411 26.6486 330.591 26.3286 331.231 26.3286C334.231 26.3186 337.241 26.3286 340.241 26.3286C340.801 26.3286 340.991 26.6286 341.151 27.0986C342.831 32.0786 344.531 37.0586 346.221 42.0386C346.261 42.1586 346.301 42.2686 346.381 42.5386L346.401 42.5286Z" fill="white"/>
<path d="M272.901 52.7789C272.681 44.8589 278.081 38.1189 286.061 36.3989C289.271 35.7089 292.501 35.7589 295.651 36.7789C300.971 38.4889 303.891 42.2689 304.661 47.6989C305.391 52.8789 303.941 57.4789 300.411 61.3289C297.461 64.5489 293.661 66.1489 289.351 66.5489C286.811 66.7889 284.291 66.6089 281.851 65.7989C276.341 63.9589 273.081 59.5789 272.901 53.7889C272.891 53.4489 272.901 53.1089 272.901 52.7689V52.7789ZM289.551 44.7189C288.811 44.8289 288.051 44.8789 287.321 45.0589C283.591 45.9689 281.301 49.7889 282.071 53.7189C282.451 55.6789 283.521 57.0389 285.431 57.6689C289.821 59.1089 294.781 56.8789 295.461 51.4689C295.741 49.2189 295.311 47.1189 293.221 45.7689C292.121 45.0589 290.881 44.7689 289.561 44.7289L289.551 44.7189Z" fill="white"/>
<path d="M159.561 53.6786C159.281 55.7186 160.511 57.6986 162.541 58.4686C165.041 59.4086 167.551 59.2886 170.051 58.4086C170.421 58.2786 170.781 58.1186 171.141 57.9686C172.041 57.5753 172.834 57.7186 173.521 58.3986C174.671 59.5386 175.811 60.6886 176.951 61.8386C177.651 62.5386 177.611 62.8886 176.811 63.4386C172.761 66.2186 168.271 67.0486 163.461 66.5086C160.551 66.1786 157.861 65.2286 155.591 63.3286C152.691 60.9086 151.331 57.6986 151.151 53.9986C150.841 47.4286 153.101 41.9886 158.851 38.5086C164.041 35.3686 169.621 35.0086 175.201 37.4886C179.031 39.1986 180.891 42.4386 181.471 46.5086C181.771 48.6286 181.401 50.6586 180.961 52.7086C180.791 53.5086 180.251 53.6886 179.511 53.6886C173.191 53.6786 166.861 53.6886 160.541 53.6886H159.561V53.6786ZM173.431 47.4586C173.731 45.6586 172.691 43.6386 170.781 43.0086C167.851 42.0386 165.001 42.2786 162.511 44.2986C161.561 45.0686 160.901 46.0986 160.461 47.4586H173.421H173.431Z" fill="white"/>
<path d="M329.311 38.4477C329.131 38.7577 328.951 39.0077 328.831 39.2877C328.131 40.8877 327.441 42.4877 326.741 44.0877C326.371 44.9277 326.271 44.9077 325.381 44.5977C323.721 44.0177 322.051 43.4077 320.331 43.0377C319.471 42.8577 318.441 43.0377 317.581 43.3277C316.341 43.7377 316.231 44.9177 317.341 45.6077C318.681 46.4477 320.131 47.1277 321.501 47.9377C322.861 48.7477 324.291 49.4977 325.511 50.4977C327.931 52.4977 328.611 55.2777 328.311 58.2677C327.871 62.5977 325.061 65.2577 320.441 66.1077C314.871 67.1277 309.761 66.0877 305.071 62.9377C304.611 62.6277 304.551 62.3977 304.831 61.9377C305.831 60.2877 306.801 58.6177 307.791 56.9577C308.261 56.1777 308.661 56.1077 309.471 56.5677C311.821 57.9077 314.241 59.0677 317.021 59.1077C317.691 59.1177 318.391 59.0777 319.031 58.8877C320.091 58.5777 320.351 57.3177 319.531 56.5877C319.071 56.1777 318.501 55.8877 317.961 55.5877C316.131 54.5877 314.201 53.7477 312.481 52.5877C308.911 50.1977 307.531 46.4877 308.561 42.4377C309.391 39.1777 311.701 37.3177 314.821 36.4877C319.851 35.1377 324.641 36.1777 329.261 38.3177C329.301 38.3377 329.321 38.3977 329.361 38.4477H329.311Z" fill="white"/>
<path d="M224.611 65.6391C223.541 65.6391 222.471 65.6391 221.401 65.6391C220.271 65.6391 220.041 65.3691 220.261 64.2891C220.951 60.8391 221.651 57.3891 222.341 53.9491C223.261 49.3791 224.181 44.8091 225.091 40.2291C225.291 39.2091 225.471 39.0391 226.481 39.0391C228.651 39.0391 230.821 39.0391 232.991 39.0391C234.221 39.0391 234.411 39.2691 234.171 40.4691C232.581 48.4391 230.991 56.4091 229.401 64.3791C229.171 65.5191 229.021 65.6291 227.831 65.6291C226.761 65.6291 225.691 65.6291 224.621 65.6291L224.611 65.6391Z" fill="white"/>
<path d="M232.412 24.2899C235.642 24.3399 237.402 26.5499 236.762 29.7699C236.142 32.8799 233.602 34.8199 230.422 34.5999C227.782 34.4199 226.292 32.5399 226.512 29.6799C226.752 26.5299 229.262 24.2399 232.412 24.2899V24.2899Z" fill="white"/>
</svg>
