<svg width="28" height="28" viewBox="0 0 28 28" fill="none" xmlns="http://www.w3.org/2000/svg">
<path d="M21.913 28H6.08696C4.47314 27.9982 2.92593 27.3564 1.78479 26.2152C0.643644 25.0741 0.00177228 23.5269 0 21.913L0 6.08696C0.00177228 4.47314 0.643644 2.92593 1.78479 1.78479C2.92593 0.643644 4.47314 0.00177228 6.08696 0L21.913 0C23.5269 0.00177228 25.0741 0.643644 26.2152 1.78479C27.3564 2.92593 27.9982 4.47314 28 6.08696V21.913C27.9982 23.5269 27.3564 25.0741 26.2152 26.2152C25.0741 27.3564 23.5269 27.9982 21.913 28V28ZM17.5493 14.7268C17.9327 14.6902 18.3174 14.7822 18.6428 14.9883C18.9683 15.1944 19.2159 15.5028 19.3468 15.865C19.568 16.5942 19.6592 17.3565 19.6164 18.1172V24.3478H23.587V17.3162C23.587 15.2764 23.3179 13.9391 22.7141 12.9804C21.9739 11.7996 20.6957 11.2256 18.8245 11.2256C17.9768 11.2168 17.1435 11.4442 16.4177 11.8823C15.8506 12.226 15.3836 12.7126 15.0634 13.2933H15.008V11.5463H11.1951V24.3478H15.1663V18.0095C15.1663 16.3861 15.4493 14.7268 17.5493 14.7268ZM4.73017 11.5463V24.3478H8.70435V11.5463H4.73017ZM6.71513 5.17391C6.25675 5.17175 5.80807 5.30582 5.42603 5.55912C5.04399 5.81242 4.74582 6.17352 4.56938 6.59658C4.39294 7.01964 4.34617 7.48559 4.43502 7.93528C4.52387 8.38497 4.74433 8.79812 5.06841 9.12228C5.39249 9.44645 5.80559 9.66702 6.25525 9.75599C6.70492 9.84496 7.17088 9.79831 7.59398 9.62198C8.01709 9.44565 8.37827 9.14758 8.63167 8.76561C8.88507 8.38364 9.01926 7.93499 9.01722 7.47661C9.01657 6.8662 8.77384 6.28097 8.34228 5.84928C7.91071 5.4176 7.32554 5.17472 6.71513 5.17391V5.17391Z" fill="white"/>
</svg>
