<svg width="376" height="74" viewBox="0 0 376 74" fill="none" xmlns="http://www.w3.org/2000/svg">
<path d="M44.5297 32.4909C48.2997 32.4909 52.0797 32.4909 55.8497 32.5009C56.3497 32.5009 57.0997 32.1909 57.0897 33.2009C56.9797 39.0509 57.5097 44.9309 56.2497 50.7209C54.3597 59.4009 48.7997 64.3809 40.2897 66.1109C32.3497 67.7309 24.4497 67.7409 17.0797 63.7609C8.25969 59.0009 3.3297 51.2909 1.5297 41.6609C-0.170297 32.5709 0.839676 23.7109 5.68968 15.6309C10.8597 7.00094 18.8897 3.06094 28.7097 2.57094C36.3597 2.19094 43.4797 3.88094 49.5197 8.86094C53.6097 12.2309 56.0997 16.5709 56.8497 21.8709C56.9997 22.9009 56.8797 23.3209 55.6897 23.2909C52.2697 23.2109 48.8396 23.2509 45.4096 23.2709C44.7196 23.2709 44.1797 23.2609 44.0197 22.4009C42.8797 16.3409 35.2397 12.3209 28.9197 13.1609C21.4797 14.1509 16.8097 18.4109 14.8597 26.5309C13.0897 33.9409 13.3097 41.2409 17.0097 48.1609C22.3697 58.1709 33.9997 57.6309 40.0897 54.0009C44.0197 51.6609 44.9997 47.6309 45.1397 43.3209C45.1697 42.2709 44.4697 42.5909 43.9897 42.5909C40.3897 42.5709 36.7897 42.5309 33.1897 42.6009C32.0497 42.6209 31.6997 42.3209 31.7397 41.1609C31.8297 38.7309 31.8397 36.2809 31.7397 33.8509C31.6897 32.6409 32.1197 32.4309 33.2097 32.4409C36.9797 32.5009 40.7597 32.4609 44.5297 32.4609V32.4909Z" fill="white"/>
<path d="M144.539 25.6884C150.769 19.1084 157.329 17.4084 164.459 20.2784C168.599 21.9484 171.639 24.8784 173.349 28.8884C177.369 38.2784 177.389 47.7584 172.649 56.8884C168.749 64.4084 160.24 67.7984 152.06 65.5984C148.9 64.7484 146.489 62.8484 144.249 60.2384C144.249 61.3884 144.199 62.5484 144.269 63.6984C144.319 64.6184 144.109 65.0084 143.059 64.9884C140.099 64.9084 137.139 64.9284 134.179 64.9884C133.179 65.0084 132.769 64.8284 132.779 63.6784C132.819 44.1884 132.819 24.6984 132.779 5.19841C132.779 4.08841 133.129 3.83841 134.159 3.85841C137.119 3.91841 140.079 3.93841 143.039 3.85841C144.259 3.81841 144.589 4.17841 144.579 5.39841C144.519 11.7784 144.549 18.1584 144.549 24.5384V25.6984L144.539 25.6884ZM164.129 42.9184C163.989 39.7484 163.739 36.8784 162.459 34.1984C160.719 30.5484 157.629 29.1984 153.819 29.2284C149.969 29.2584 147.129 30.9984 145.639 34.6084C143.979 38.6284 143.749 42.8184 144.429 47.0684C144.819 49.5184 145.839 51.7084 147.539 53.5584C150.739 57.0384 155.779 57.5284 159.439 54.5484C163.199 51.4984 163.939 47.1784 164.129 42.9284V42.9184Z" fill="white"/>
<path d="M375.38 37.0492C375.35 38.2692 374.87 39.2092 373.85 39.9792C366.32 45.6792 358.82 51.4292 351.3 57.1492C344.38 62.4092 337.45 67.6692 330.52 72.9092C328.97 74.0792 327.51 74.1092 326.5 72.9492C325.38 71.6692 325.64 70.4392 326.58 69.0392C330.2 63.6692 334.13 58.4592 336.19 52.1992C340.98 37.6592 339.17 23.9792 330.78 11.1792C329.35 8.99922 327.91 6.82922 326.41 4.69922C325.45 3.33922 325.48 2.11922 326.67 0.969223C327.69 -0.0207765 329.18 -0.0107765 330.47 0.969223C335.91 5.11922 341.34 9.27922 346.77 13.4192C355.62 20.1692 364.46 26.9292 373.32 33.6492C374.48 34.5292 375.45 35.4392 375.38 37.0392V37.0492Z" fill="white"/>
<path d="M210.35 61.3378C204.75 66.1978 198.39 67.1378 191.62 65.6678C184.44 64.1078 181.05 58.9978 182 51.7178C182.98 44.1878 186.48 40.7178 194.82 39.1478C198.29 38.4978 201.79 37.9878 205.27 37.3878C205.89 37.2778 206.51 37.1078 207.11 36.8978C208.85 36.2878 209.94 35.1278 210.02 33.2078C210.09 31.2978 209.13 29.9778 207.46 29.2478C204.65 28.0278 201.74 27.9378 198.82 28.8878C196.58 29.6178 195.25 31.2678 194.81 33.4978C194.56 34.7678 194 34.9978 192.84 34.9678C190.17 34.8878 187.5 34.8878 184.83 34.9678C183.64 35.0078 183.26 34.7878 183.41 33.4578C184.3 25.6878 187.87 21.5678 195.55 19.8678C200.59 18.7478 205.68 18.7478 210.72 19.9278C217.51 21.5178 221.36 26.0178 221.94 32.9778C222.56 40.4478 222.11 47.9378 222.22 55.4178C222.26 58.0878 222.13 60.7578 222.26 63.4178C222.33 64.8778 221.8 65.1478 220.5 65.0978C218.07 65.0078 215.62 64.9578 213.19 65.1078C211.47 65.2178 210.56 64.7278 210.54 62.9278C210.54 62.4678 210.44 62.0078 210.35 61.3378ZM210.02 43.5278C207.87 44.8878 205.46 45.2378 203.1 45.7378C200.62 46.2678 198.08 46.6578 195.96 48.2078C194.06 49.5878 193.59 51.5378 193.88 53.7478C194.15 55.7578 195.35 56.9478 197.27 57.4678C202.71 58.9378 209.02 55.1178 209.97 49.5878C210.3 47.6878 210.02 45.6878 210.02 43.5278Z" fill="white"/>
<path d="M127.19 42.6606C127.24 49.2706 125.55 55.2806 120.75 60.0906C116.55 64.3006 111.25 65.9906 105.46 66.1706C99.1301 66.3606 93.23 64.9306 88.43 60.4806C84.33 56.6806 82.3501 51.8106 81.7001 46.3506C80.4901 36.1206 83.7801 27.6106 92.8101 22.1006C107.78 12.9606 126.38 22.9406 127.18 40.4106C127.21 41.1606 127.18 41.9206 127.18 42.6706L127.19 42.6606ZM93.74 41.6906C93.7 44.6206 93.94 46.6906 94.47 48.7106C95.64 53.2006 98.9401 55.9506 103.38 56.1706C108.95 56.4506 112.59 54.4506 114.15 49.8606C115.83 44.9006 115.85 39.8306 113.94 34.8906C112.61 31.4306 109.91 29.6306 106.26 29.2606C102.33 28.8706 98.68 29.4306 96.18 32.9006C94.13 35.7506 93.83 39.1206 93.74 41.6806V41.6906Z" fill="white"/>
<path d="M241.5 26.4186C246.55 18.7186 254.75 18.2186 260.75 19.7186C266.75 21.2086 270.6 26.2886 270.67 32.8386C270.78 43.1686 270.69 53.4986 270.73 63.8286C270.73 64.8286 270.45 65.1086 269.47 65.0886C266.45 65.0286 263.43 64.9986 260.42 65.0986C259.13 65.1386 258.77 64.8186 258.78 63.4786C258.85 55.0586 258.82 46.6486 258.81 38.2286C258.81 36.4886 258.67 34.7586 258.19 33.0686C257.63 31.0986 256.31 29.8786 254.34 29.4586C252.28 29.0186 250.18 28.9886 248.13 29.5186C244.4 30.4786 242.25 33.3186 242.18 37.8886C242.05 46.1886 242.11 54.4886 242.1 62.7886C242.1 64.3019 241.323 65.0586 239.77 65.0586C236.98 65.0586 234.2 65.0286 231.41 65.0786C230.45 65.0986 230.1 64.8386 230.11 63.8186C230.14 49.7186 230.13 35.6086 230.11 21.5086C230.11 20.6986 230.19 20.2486 231.21 20.2686C234.29 20.3386 237.36 20.3386 240.44 20.2686C241.44 20.2486 241.56 20.6586 241.53 21.4886C241.47 22.9686 241.51 24.4586 241.51 26.4086L241.5 26.4186Z" fill="white"/>
<path d="M279.351 30.0307C279.351 23.2407 279.381 16.4507 279.321 9.67065C279.311 8.45065 279.631 8.10065 280.861 8.13065C283.821 8.22065 286.781 8.20065 289.741 8.13065C290.751 8.11065 291.021 8.44065 291.001 9.41065C290.941 12.0207 291.061 14.6307 290.941 17.2407C290.881 18.6507 291.241 19.1207 292.731 19.1007C297.721 19.0107 302.711 19.1007 307.701 19.0307C308.961 19.0107 309.451 19.2807 309.361 20.6407C309.231 22.7207 309.231 24.8207 309.361 26.9007C309.451 28.3207 309.081 28.7707 307.591 28.7407C302.661 28.6407 297.731 28.7507 292.801 28.6707C291.411 28.6507 290.921 28.9307 290.941 30.4407C291.041 36.0107 290.961 41.5807 291.001 47.1507C291.001 48.3007 291.111 49.4807 291.351 50.6007C292.101 54.2207 294.451 55.9907 298.181 55.8707C301.651 55.7507 303.921 53.6807 304.401 49.8507C304.581 48.4607 304.931 48.0607 306.361 48.1507C309.021 48.3107 311.701 48.2407 314.361 48.1807C315.391 48.1607 315.731 48.3806 315.701 49.5206C315.451 58.9506 309.061 65.6007 299.561 66.2107C296.411 66.4107 293.301 66.2106 290.291 65.2006C283.841 63.0506 279.661 57.6107 279.451 50.5507C279.251 43.7107 279.411 36.8606 279.411 30.0206H279.361L279.351 30.0307Z" fill="white"/>
<path d="M76.1403 34.3982C76.1403 44.0282 76.1102 53.6482 76.1702 63.2782C76.1702 64.6782 75.7802 65.0282 74.4302 64.9782C71.7102 64.8782 68.9803 64.8582 66.2603 64.9782C64.7303 65.0482 64.2402 64.6882 64.2402 63.0282C64.3102 44.9382 64.2803 26.8482 64.2803 8.74816C64.2803 7.52816 64.3403 6.30816 64.2603 5.09816C64.1903 4.08816 64.5702 3.81816 65.5402 3.83816C68.6102 3.89816 71.6903 3.92816 74.7603 3.83816C76.0203 3.79816 76.1503 4.29816 76.1503 5.34816C76.1203 15.0282 76.1302 24.7182 76.1302 34.3982H76.1403Z" fill="white"/>
</svg>
