<svg width="323" height="107" viewBox="0 0 323 107" fill="none" xmlns="http://www.w3.org/2000/svg">
<path d="M69.8191 12.0711L61.9091 19.9811C59.4691 17.7211 56.7391 15.8211 53.6391 14.4711C48.6191 12.2811 43.3691 11.5311 37.9791 12.3111C26.3391 14.0011 18.2391 20.4111 14.1191 31.3511C8.37911 46.5711 15.5691 64.0011 31.1391 69.8011C40.7591 73.3811 50.1491 72.5411 58.8291 66.7011C64.4291 62.9211 67.3991 57.5011 68.4091 50.9111C68.4591 50.5911 68.5091 50.2811 68.5491 49.9611C68.5491 49.8911 68.5291 49.8211 68.5191 49.6811H41.7691V38.5111H79.7491C79.8991 40.5411 80.1491 42.5911 80.1691 44.6411C80.2391 51.7311 79.0291 58.5911 75.4391 64.7911C70.4391 73.4411 63.0091 79.1611 53.3091 81.5911C39.8891 84.9511 27.3891 82.7611 16.2791 74.3211C7.59911 67.7411 2.13911 59.0011 0.529109 48.2011C-1.64089 33.5911 3.10911 21.2911 13.9791 11.3911C19.9591 5.94111 27.0591 2.57111 35.0691 1.36111C48.2491 -0.628893 59.8891 2.68111 69.6891 11.9011C69.7591 11.9711 69.8191 12.0411 69.8291 12.0711H69.8191Z" fill="white"/>
<path d="M239.139 36.1193V31.7493H250.159C250.169 31.9793 250.199 32.2393 250.199 32.4993C250.199 47.9793 250.199 63.4493 250.199 78.9293C250.199 83.5293 249.679 88.0593 247.939 92.3693C244.829 100.099 239.059 104.639 230.949 106.209C225.079 107.349 219.319 106.939 213.879 104.279C208.169 101.489 204.149 97.0493 201.499 91.1793C204.879 89.7693 208.219 88.3793 211.619 86.9693C211.869 87.4693 212.079 87.9293 212.329 88.3693C214.599 92.3993 217.799 95.3093 222.469 96.0893C226.919 96.8393 231.129 96.1193 234.649 93.0493C237.199 90.8193 238.429 87.8393 238.839 84.5693C239.149 82.0993 239.139 79.5793 239.269 77.0893L239.019 76.9693C238.819 77.1093 238.599 77.2093 238.439 77.3793C235.309 80.7593 231.369 82.4593 226.859 82.9093C216.249 83.9793 205.719 77.1693 201.449 66.9193C195.939 53.6993 201.819 38.3793 214.809 32.3393C220.669 29.6193 226.689 29.1793 232.759 31.7093C234.919 32.6093 236.819 33.8993 238.419 35.6293C238.579 35.7993 238.809 35.8893 239.139 36.1093V36.1193ZM239.959 56.6593C239.979 54.1993 239.539 51.8193 238.609 49.5393C234.879 40.4493 224.299 37.6393 216.869 43.7593C209.469 49.8493 209.059 62.1293 216.029 68.6993C222.059 74.3793 231.349 73.8193 236.419 67.4393C238.919 64.2893 239.949 60.6293 239.959 56.6593V56.6593Z" fill="white"/>
<path d="M84.6799 56.5622C84.6999 41.5822 96.3299 30.0322 111.35 30.0822C126.38 30.1322 137.9 41.6722 137.85 56.6322C137.81 71.5722 126.17 83.1122 111.2 83.0622C96.2599 83.0122 84.6599 71.4222 84.6699 56.5622H84.6799ZM126.22 56.6122C126.23 54.4422 125.88 52.3522 125.12 50.3222C121.19 39.7622 107.88 37.1422 100.36 45.4422C95.0899 51.2622 94.9599 61.1422 100.07 67.3322C105.07 73.3822 113.97 74.3922 120.14 69.5622C124.32 66.2822 126.12 61.8322 126.21 56.6122H126.22Z" fill="white"/>
<path d="M195.219 56.5699C195.219 71.4899 183.599 83.0599 168.629 83.0599C153.659 83.0599 142.029 71.4499 142.059 56.5499C142.089 41.5799 153.649 30.0699 168.649 30.0899C183.669 30.0999 195.209 41.6099 195.209 56.5799L195.219 56.5699ZM183.619 56.2099C183.539 55.4699 183.489 54.3599 183.289 53.2699C183.099 52.2399 182.809 51.2099 182.439 50.2199C178.509 39.7599 165.169 37.1599 157.759 45.3899C152.159 51.6099 152.359 62.1499 158.199 68.1599C163.309 73.4199 171.469 74.1099 177.299 69.7099C181.639 66.4299 183.479 61.8899 183.619 56.1999V56.2099Z" fill="white"/>
<path d="M322.368 49.8602C310.368 54.8302 298.608 59.6902 286.858 64.5602C291.228 75.0902 306.888 75.4702 312.708 65.3102C315.688 67.3002 318.668 69.2802 321.698 71.3002C320.528 73.0502 319.198 74.5802 317.698 75.9702C312.408 80.8702 306.118 83.2002 298.928 83.0402C286.348 82.7502 276.118 74.2602 273.858 61.9102C272.198 52.8602 274.098 44.5602 280.498 37.6702C284.688 33.1602 289.968 30.7002 296.108 30.2102C306.038 29.4202 313.388 33.6902 318.508 41.9802C320.018 44.4302 321.068 47.1602 322.378 49.8702L322.368 49.8602ZM308.668 45.8802C308.068 45.0402 307.618 44.2102 306.978 43.5602C304.598 41.1102 301.568 40.1202 298.248 40.3702C292.458 40.8102 288.418 43.8902 286.028 49.1402C285.098 51.2002 284.778 53.3902 284.858 55.7502C292.798 52.4602 300.638 49.2002 308.658 45.8702L308.668 45.8802Z" fill="white"/>
<path d="M268.389 81.4111H257.119V3.87109H268.389V81.4111Z" fill="white"/>
</svg>
