<svg width="426" height="163" viewBox="0 0 426 163" fill="none" xmlns="http://www.w3.org/2000/svg">
<path d="M15.4096 112.809C14.5896 112.669 13.7697 112.549 12.9497 112.399C10.5797 111.979 8.35964 111.189 6.36964 109.799C3.80964 108.009 2.15964 105.589 1.39964 102.579C0.649639 99.6294 0.639632 96.6694 1.32963 93.7094C2.23963 89.7694 4.60965 86.9194 8.09965 84.9694C10.5197 83.6194 13.1397 82.8594 15.8497 82.3694C18.6697 81.8694 21.5096 81.7094 24.3696 81.6994C26.0196 81.6994 27.6796 81.6994 29.3296 81.6994H29.9696C30.0296 81.6294 30.0796 81.5994 30.0796 81.5594C30.1096 80.0894 30.1896 78.6194 29.9296 77.1594C29.6396 75.5194 29.0197 74.0294 27.6697 72.9494C26.8597 72.2994 25.9196 71.9294 24.8996 71.7294C23.2896 71.4194 21.6897 71.4494 20.1297 71.9294C17.6497 72.6994 16.2197 74.4294 15.6697 76.9294C15.6097 77.2194 15.5596 77.5094 15.4996 77.8394H2.37965C2.46965 76.4794 2.71963 75.1794 3.10963 73.9094C4.71963 68.6794 8.27963 65.3094 13.2996 63.3794C15.9596 62.3494 18.7496 61.8694 21.5896 61.7294C24.4296 61.5894 27.2497 61.7094 30.0397 62.2594C32.2997 62.7094 34.4597 63.4194 36.4497 64.5894C40.2697 66.8394 42.5196 70.1894 43.3996 74.4994C43.6896 75.9194 43.8096 77.3594 43.8096 78.8194C43.8096 89.4594 43.8096 100.099 43.8096 110.739V111.669H30.3797C30.3597 110.819 30.3797 109.939 30.3797 109.069C30.3797 108.189 30.3797 107.319 30.3797 106.279C30.1797 106.499 30.0796 106.599 29.9996 106.709C27.6396 109.799 24.4996 111.619 20.7096 112.389C19.9796 112.539 19.2596 112.669 18.5296 112.799H15.3996L15.4096 112.809ZM30.1196 90.7494C28.8796 90.7494 27.7496 90.7294 26.6196 90.7494C24.8596 90.7894 23.0896 90.8194 21.3296 90.9494C19.8996 91.0594 18.5196 91.4294 17.2496 92.1294C15.8096 92.9194 14.8797 94.0994 14.6297 95.7194C14.5097 96.5094 14.4796 97.3494 14.5596 98.1494C14.7896 100.689 16.2097 102.299 18.6997 102.879C21.0897 103.439 23.4397 103.239 25.6697 102.219C28.5897 100.889 30.0996 98.5994 30.1196 95.3694C30.1196 94.0594 30.1196 92.7494 30.1196 91.4294V90.7394V90.7494Z" fill="white"/>
<path d="M175.31 112.807C174.69 112.717 174.07 112.607 173.45 112.537C169.95 112.117 166.62 111.157 163.59 109.307C159.33 106.707 156.54 102.937 154.94 98.2567C153.87 95.1267 153.44 91.8867 153.39 88.5867C153.34 85.6867 153.48 82.7967 154.1 79.9467C155.05 75.5667 156.87 71.6267 160 68.3667C163.17 65.0567 167.07 63.0467 171.55 62.1867C175.84 61.3567 180.12 61.4967 184.33 62.6867C191.5 64.7267 196.08 69.3867 198.13 76.5267C198.78 78.7967 199.1 81.1267 199.13 83.4867C199.15 85.6167 199.16 87.7367 199.18 89.8667C199.18 90.1067 199.16 90.3567 199.15 90.6567H167.29C167.39 91.5067 167.47 92.2967 167.58 93.0667C167.8 94.5967 168.18 96.0867 168.82 97.4967C170.28 100.727 172.82 102.427 176.32 102.727C177.93 102.857 179.53 102.757 181.09 102.247C183.63 101.407 185.33 99.7267 186.24 97.2267C186.33 96.9767 186.42 96.7167 186.53 96.4367H199.18C199.09 96.9167 199.03 97.3567 198.92 97.7867C197.24 104.557 192.99 108.967 186.48 111.297C184.29 112.077 182.01 112.447 179.71 112.677C179.52 112.697 179.33 112.757 179.13 112.807H175.32H175.31ZM185.75 81.5067C185.77 81.3867 185.8 81.2967 185.8 81.2067C185.72 79.4067 185.43 77.6567 184.71 75.9967C183.88 74.0867 182.56 72.6667 180.59 71.9067C179.3 71.4067 177.96 71.2467 176.59 71.2767C173.53 71.3467 171.14 72.6067 169.53 75.2467C168.43 77.0567 167.88 79.0567 167.56 81.1267C167.54 81.2467 167.57 81.3767 167.58 81.5167H185.75V81.5067Z" fill="white"/>
<path d="M401.98 112.809C401.36 112.719 400.74 112.619 400.12 112.539C396.71 112.129 393.47 111.209 390.49 109.449C385.95 106.759 383.06 102.779 381.46 97.8188C380.51 94.8688 380.1 91.8288 380.07 88.7288C380.05 86.5988 380.07 84.4788 380.36 82.3588C381.08 77.1688 382.87 72.4588 386.49 68.5688C389.46 65.3688 393.12 63.3388 397.36 62.3788C402.42 61.2288 407.45 61.4088 412.36 63.1188C418.72 65.3288 422.79 69.7788 424.7 76.2088C425.25 78.0588 425.62 79.9388 425.67 81.8788C425.67 82.0488 425.74 82.2188 425.78 82.3888V90.6788C425.69 90.6788 425.6 90.6588 425.51 90.6588C415.19 90.6588 404.86 90.6588 394.54 90.6588C394.37 90.6588 394.19 90.6888 393.97 90.7088C394.01 91.1988 394.05 91.6488 394.1 92.0888C394.31 93.9388 394.69 95.7488 395.45 97.4588C396.68 100.209 398.71 101.969 401.7 102.569C403.25 102.879 404.81 102.899 406.36 102.619C409.67 102.019 411.93 100.169 413.01 96.9488C413.07 96.7788 413.13 96.6188 413.21 96.4188H413.97C417.64 96.4188 421.31 96.4188 424.97 96.4188C425.24 96.4188 425.51 96.3988 425.78 96.3888V96.9288C425.71 97.2088 425.65 97.4888 425.58 97.7588C424.47 102.449 421.98 106.199 417.97 108.909C414.83 111.039 411.31 112.109 407.57 112.549C406.97 112.619 406.38 112.729 405.78 112.819H401.97L401.98 112.809ZM412.48 81.5188C412.39 79.3088 412.06 77.2488 411.06 75.3488C410.03 73.3988 408.45 72.1088 406.3 71.6288C405.34 71.4188 404.33 71.2988 403.34 71.2988C400.14 71.2988 397.68 72.6788 396.07 75.4688C395.06 77.2188 394.54 79.1288 394.23 81.1088C394.21 81.2288 394.23 81.3588 394.23 81.5188H412.48Z" fill="white"/>
<path d="M308.019 112.808C307.269 112.668 306.519 112.548 305.769 112.398C303.129 111.878 300.779 110.798 298.819 108.928C296.869 107.058 295.669 104.758 294.959 102.178C294.429 100.248 294.179 98.2678 294.179 96.2778C294.159 85.3478 294.179 74.4178 294.179 63.4878V62.7678H307.999V63.6578C307.999 73.5978 307.999 83.5278 307.999 93.4678C307.999 94.8078 308.069 96.1378 308.419 97.4378C309.089 99.9078 310.639 101.428 313.179 101.878C314.929 102.188 316.659 102.118 318.339 101.518C321.299 100.458 322.949 98.2678 323.499 95.2378C323.669 94.3278 323.719 93.3978 323.719 92.4678C323.729 82.8678 323.719 73.2778 323.719 63.6778V62.7578H337.369V111.678H323.709V104.918L323.569 104.878C323.459 105.058 323.349 105.248 323.239 105.428C320.949 109.278 317.569 111.558 313.189 112.398C312.459 112.538 311.739 112.668 311.009 112.798H308.019V112.808Z" fill="white"/>
<path d="M124.05 112.809C123.45 112.719 122.86 112.619 122.26 112.539C117.87 112.009 113.86 110.569 110.41 107.719C107.38 105.219 105.34 102.039 104.05 98.3493C102.94 95.1793 102.48 91.8993 102.41 88.5593C102.35 85.4693 102.52 82.4093 103.25 79.3893C104.38 74.6993 106.53 70.5893 110.16 67.3293C113.15 64.6493 116.65 62.9793 120.58 62.2193C125.41 61.2793 130.18 61.5093 134.85 63.0893C138.28 64.2493 141.18 66.1893 143.41 69.0693C145.31 71.5193 146.44 74.2993 147.03 77.3193C147.21 78.2193 147.31 79.1393 147.46 80.1093H134.3C134.2 79.6993 134.13 79.2793 133.99 78.8793C133.69 78.0293 133.43 77.1493 133.04 76.3493C131.95 74.1293 130.17 72.7693 127.69 72.4193C125.27 72.0793 122.99 72.4693 120.98 73.9493C119.58 74.9793 118.62 76.3693 117.92 77.9493C117.17 79.6393 116.76 81.4293 116.58 83.2593C116.31 86.0593 116.32 88.8693 116.59 91.6593C116.8 93.7593 117.25 95.8093 118.24 97.7093C119.74 100.609 122.14 102.129 125.39 102.379C126.98 102.499 128.51 102.309 129.95 101.619C131.97 100.659 133.349 99.0893 134.219 97.0693C134.589 96.1993 134.8 95.2693 135.07 94.3593C135.13 94.1493 135.17 93.9193 135.23 93.6793H147.69C147.65 94.0893 147.63 94.4893 147.57 94.8793C146.98 99.2193 145.43 103.139 142.41 106.389C139.98 109.019 136.98 110.709 133.56 111.719C131.84 112.229 130.07 112.489 128.29 112.679C128.1 112.699 127.91 112.769 127.71 112.809H124.04H124.05Z" fill="white"/>
<path d="M73.0603 112.807C72.4603 112.717 71.8703 112.617 71.2703 112.537C67.4803 112.077 63.9403 110.937 60.7803 108.747C57.1803 106.257 54.7403 102.867 53.2203 98.7968C52.3003 96.3268 51.7803 93.7568 51.5603 91.1268C51.3203 88.1668 51.3203 85.2068 51.7203 82.2568C52.3703 77.5468 53.9503 73.2168 57.0303 69.5268C60.0303 65.9268 63.8503 63.6068 68.3803 62.4968C73.7003 61.1868 78.9903 61.3468 84.1603 63.2068C90.5403 65.5068 94.3603 70.0968 95.8803 76.6468C96.1203 77.6768 96.2303 78.7368 96.4003 79.7868C96.4103 79.8668 96.4003 79.9568 96.4003 80.0968H83.2903C83.1903 79.6968 83.1203 79.2668 82.9803 78.8668C82.6903 78.0168 82.4303 77.1368 82.0303 76.3368C80.9403 74.1168 79.1603 72.7568 76.6803 72.4068C73.8403 72.0068 71.2703 72.6068 69.1403 74.6368C67.8803 75.8368 67.0803 77.3168 66.5103 78.9368C65.7703 81.0268 65.4403 83.1968 65.4303 85.3968C65.4203 87.4568 65.4503 89.5168 65.5903 91.5668C65.7503 93.8168 66.2803 95.9968 67.3903 97.9868C68.9103 100.727 71.2703 102.117 74.3803 102.357C75.9703 102.477 77.5003 102.287 78.9503 101.597C80.8703 100.687 82.2103 99.1868 83.1203 97.2968C83.5803 96.3368 83.9003 95.3168 84.0903 94.2668C84.1303 94.0668 84.1803 93.8768 84.2303 93.6568H96.7603C96.5603 94.8468 96.4103 95.9868 96.1603 97.1068C95.3803 100.617 93.8503 103.757 91.3703 106.407C89.0403 108.897 86.2003 110.547 82.9603 111.567C81.1403 112.137 79.2603 112.437 77.3703 112.647C77.1503 112.667 76.9403 112.737 76.7303 112.787H73.0603V112.807Z" fill="white"/>
<path d="M221.44 69.6493C221.63 69.3493 221.82 69.0493 222.02 68.7493C224.51 65.0293 228 62.8393 232.37 62.0193C235.09 61.5093 237.83 61.5193 240.53 62.1993C245.15 63.3493 248.13 66.2993 249.69 70.7393C250.56 73.2193 250.9 75.7993 250.91 78.4093C250.93 89.3193 250.91 100.229 250.91 111.139V111.599C250.42 111.749 238.31 111.799 237.18 111.659V110.819C237.18 100.769 237.18 90.7193 237.18 80.6693C237.18 79.4593 237.04 78.2793 236.68 77.1193C235.98 74.8293 234.46 73.4493 232.1 72.9893C230.22 72.6193 228.35 72.6793 226.54 73.3293C223.76 74.3293 222.17 76.3793 221.56 79.2193C221.37 80.0993 221.3 81.0093 221.29 81.9093C221.27 91.5493 221.28 101.199 221.28 110.839V111.689H207.59V62.7593H221.26V69.6093L221.42 69.6593L221.44 69.6493Z" fill="white"/>
<path d="M286.13 100.68V111.37C285.27 111.56 284.42 111.79 283.56 111.94C280.05 112.53 276.53 112.58 273.02 111.86C271.05 111.46 269.2 110.74 267.56 109.54C265.31 107.88 263.99 105.61 263.3 102.95C262.91 101.46 262.72 99.9297 262.71 98.3897C262.69 90.2397 262.68 82.0897 262.66 73.9497C262.66 73.6597 262.66 73.3697 262.66 72.9897C260.76 72.9397 258.91 72.9897 257.08 72.9597C256.92 72.4197 256.9 63.4197 257.07 62.7197H262.67C262.67 61.1397 262.67 59.6297 262.67 58.1197C262.67 56.6097 262.67 55.1397 262.67 53.5597C267.25 51.6897 271.82 49.8297 276.49 47.9297V62.7097H285.73C285.9 63.2597 285.96 71.4897 285.82 72.9597C284.28 72.9997 282.73 72.9697 281.18 72.9797C279.64 72.9797 278.11 72.9797 276.49 72.9797V73.7197C276.49 81.2597 276.49 88.7997 276.51 96.3297C276.51 97.0897 276.65 97.8697 276.86 98.5997C277.35 100.31 278.58 101.21 280.31 101.42C282.09 101.64 283.83 101.45 285.54 100.89C285.71 100.83 285.88 100.79 286.13 100.71V100.68Z" fill="white"/>
<path d="M248.671 44.9883C248.661 44.6583 248.641 44.4583 248.641 44.2583C248.641 40.4583 248.641 36.6483 248.641 32.8483C248.641 32.1483 248.641 32.1383 249.321 31.8883C256.891 29.0783 264.451 26.2683 272.021 23.4583C272.311 23.3483 272.601 23.2283 272.911 23.1083C272.791 22.7683 272.511 22.7583 272.301 22.6683C269.801 21.6783 267.291 20.7083 264.781 19.7283C259.621 17.7183 254.461 15.7083 249.301 13.6883C248.661 13.4383 248.651 13.4383 248.651 12.8383C248.651 9.03828 248.651 5.22828 248.651 1.42828C248.651 1.31828 248.661 1.20828 248.671 0.988281C248.941 1.07828 249.161 1.12828 249.381 1.21828C252.971 2.65828 256.561 4.09828 260.141 5.54828C267.551 8.52828 274.951 11.5083 282.361 14.4883C284.791 15.4683 287.231 16.4483 289.661 17.4283C290.371 17.7183 290.381 17.7183 290.381 18.4483C290.381 21.4383 290.371 24.4283 290.391 27.4083C290.391 27.9483 290.211 28.2083 289.711 28.4083C285.411 30.1283 281.111 31.8783 276.811 33.6083C267.751 37.2683 258.701 40.9383 249.641 44.5983C249.351 44.7183 249.061 44.8283 248.671 44.9783V44.9883Z" fill="white"/>
<path d="M361.051 111.698H347.391V62.7678H361.031V71.2878L361.171 71.3278C361.321 71.0378 361.471 70.7478 361.621 70.4578C362.561 68.6078 363.751 66.9378 365.311 65.5478C367.391 63.6978 369.851 62.6778 372.581 62.2878C373.601 62.1378 374.641 62.0978 375.721 62.0078V75.5978C375.291 75.5978 374.891 75.5878 374.491 75.5978C372.311 75.6678 370.151 75.8878 368.061 76.5378C366.821 76.9178 365.651 77.4578 364.611 78.2378C362.541 79.7878 361.531 81.9278 361.211 84.4278C361.101 85.2578 361.071 86.0978 361.071 86.9278C361.061 94.8978 361.071 102.868 361.071 110.838V111.698H361.051Z" fill="white"/>
</svg>
