<svg width="28" height="28" viewBox="0 0 28 28" fill="none" xmlns="http://www.w3.org/2000/svg">
<path d="M13.8521 28H6.08696C4.47314 27.9982 2.92593 27.3564 1.78479 26.2152C0.643644 25.0741 0.00177228 23.5269 0 21.913L0 6.08696C0.00177228 4.47314 0.643644 2.92593 1.78479 1.78479C2.92593 0.643644 4.47314 0.00177228 6.08696 0L21.913 0C23.5269 0.00177228 25.0741 0.643644 26.2152 1.78479C27.3564 2.92593 27.9982 4.47314 28 6.08696V21.913C27.9982 23.5269 27.3564 25.0741 26.2152 26.2152C25.0741 27.3564 23.5269 27.9982 21.913 28H18.1391V18.413H21.3354L21.9441 14.4474H18.1391V11.8738C18.1155 11.3397 18.2853 10.8149 18.6176 10.3959C18.8435 10.1628 19.1181 9.98233 19.4217 9.86744C19.7253 9.75254 20.0506 9.70603 20.3743 9.73122H22.1042V6.35478C21.0887 6.19198 20.0628 6.10247 19.0345 6.08696C18.3466 6.05465 17.6591 6.16001 17.0124 6.39686C16.3658 6.63371 15.7729 6.99728 15.2685 7.46626C14.7824 7.9992 14.4069 8.62337 14.1639 9.30255C13.9208 9.98173 13.8151 10.7024 13.8527 11.4228V14.445H10.3685V18.413H13.8521V28V28Z" fill="white"/>
</svg>
