<svg width="40" height="40" viewBox="0 0 40 40" fill="none" xmlns="http://www.w3.org/2000/svg">
<path fill-rule="evenodd" clip-rule="evenodd" d="M23.334 11.6667C23.334 13.5076 21.8416 15 20.0007 15C18.1597 15 16.6673 13.5076 16.6673 11.6667C16.6673 9.82572 18.1597 8.33333 20.0007 8.33333C21.8416 8.33333 23.334 9.82572 23.334 11.6667ZM26.6673 11.6667C26.6673 15.3486 23.6826 18.3333 20.0007 18.3333C16.3188 18.3333 13.334 15.3486 13.334 11.6667C13.334 7.98477 16.3188 5 20.0007 5C23.6826 5 26.6673 7.98477 26.6673 11.6667ZM11.6673 31.6667C11.6673 27.0643 15.3983 23.3333 20.0007 23.3333C24.603 23.3333 28.334 27.0643 28.334 31.6667C28.334 32.5871 29.0802 33.3333 30.0007 33.3333C30.9211 33.3333 31.6673 32.5871 31.6673 31.6667C31.6673 25.2233 26.444 20 20.0007 20C13.5573 20 8.33398 25.2233 8.33398 31.6667C8.33398 32.5871 9.08018 33.3333 10.0007 33.3333C10.9211 33.3333 11.6673 32.5871 11.6673 31.6667Z" fill="white"/>
</svg>
