<svg width="305" height="50" viewBox="0 0 305 50" fill="none" xmlns="http://www.w3.org/2000/svg">
<g clip-path="url(#clip0_128_955)">
<path d="M271.667 41.3798H255.862C255.386 41.3798 255 40.9938 255 40.5177V9.4832C255 9.00713 255.386 8.62109 255.862 8.62109H271.667V41.3798Z" fill="#73AF00"/>
<path d="M288.333 8.62109H271.666V41.3799H288.333V8.62109Z" fill="#F5F5F5"/>
<path d="M304.139 41.3797H288.334V8.62109H304.139C304.615 8.62109 305.001 9.00713 305.001 9.4832V40.5177C305.001 40.9939 304.615 41.3797 304.139 41.3797Z" fill="#FF4B55"/>
<path d="M281.487 25.7695L280 26.5131V27.2565H280.743L281.487 25.7695Z" fill="#FFD250"/>
<path d="M279.999 29.1171C279.793 29.1171 279.627 28.9508 279.627 28.7453V27.2585C279.627 27.053 279.793 26.8867 279.999 26.8867C280.204 26.8867 280.371 27.053 280.371 27.2585V28.7453C280.371 28.9508 280.204 29.1171 279.999 29.1171Z" fill="#00C3A0"/>
<path d="M279.999 27.6285C278.539 27.6285 277.129 27.0651 276.029 26.0422C275.879 25.9024 275.87 25.6672 276.009 25.517C276.15 25.3671 276.385 25.359 276.535 25.4976C277.497 26.3924 278.727 26.885 279.999 26.885C281.27 26.885 282.501 26.3924 283.463 25.4976C283.613 25.3587 283.848 25.3663 283.988 25.517C284.128 25.6673 284.119 25.9025 283.969 26.0422C282.869 27.0652 281.459 27.6285 279.999 27.6285Z" fill="#00C3A0"/>
<path d="M280 29.1162C279.047 29.1162 278.124 28.8378 277.33 28.3107L277.742 27.6914C279.083 28.5829 280.916 28.5829 282.257 27.6914L282.669 28.3107C281.876 28.8379 280.953 29.1162 280 29.1162Z" fill="#00AADC"/>
<path d="M279.411 24.0977L278.591 25.3679L278.451 25.7859L280.589 25.2903L279.411 24.0977Z" fill="#732D37"/>
<path d="M277.725 26.1947C276.742 26.1947 275.563 25.3678 275.25 23.5252L275.983 23.4011C276.243 24.9333 277.186 25.4523 277.752 25.451C277.925 25.4462 278.106 25.3863 278.121 25.2637C278.137 25.117 278.141 25.0822 277.753 24.9508C277.541 24.8792 277.302 24.7983 277.134 24.606C276.454 23.8295 277.374 23.0077 277.817 22.6128C277.895 22.5431 277.927 22.4839 277.919 22.4614C277.894 22.3979 277.748 22.3018 277.584 22.3018C277.112 22.3018 276.753 22.035 276.649 21.6059C276.541 21.1615 276.746 20.6933 277.135 20.4922L277.476 21.1528C277.385 21.2 277.349 21.3343 277.372 21.4302C277.381 21.4687 277.403 21.5583 277.584 21.5583C278.039 21.5583 278.472 21.827 278.613 22.1965C278.674 22.354 278.764 22.7635 278.312 23.1675C277.824 23.6035 277.532 23.9316 277.693 24.1164C277.73 24.1581 277.887 24.2115 277.991 24.2464C278.326 24.3597 278.949 24.5702 278.859 25.3488C278.804 25.8385 278.367 26.1782 277.773 26.1943C277.757 26.1943 277.741 26.1947 277.725 26.1947Z" fill="#AAD264"/>
<path d="M280.743 22.0517C280.743 22.0517 281.487 20.5649 280 19.8215C280 19.8215 285.204 19.078 284.461 25.7689L284.46 25.7686C283.972 25.3783 283.248 24.6649 282.989 24.0962L280.743 22.7951V22.0517Z" fill="#874150"/>
<path d="M280 23.5391L283.717 25.7693C283.717 25.7693 283.717 25.7693 282.23 26.5128L280 24.2826V23.5391Z" fill="#732D37"/>
<path d="M278.514 21.3098C278.924 21.3098 279.257 21.6427 279.257 22.0532L279.256 22.054C278.813 22.4976 278.703 23.175 278.983 23.736L279.151 24.0721C279.221 24.2121 279.314 24.34 279.424 24.4508L281.487 26.514V25.4865C281.487 24.2065 281.19 22.9441 280.617 21.7993C280.239 21.0438 279.467 20.5664 278.622 20.5664H278.514V21.31H278.514V21.3098Z" fill="#783C46"/>
<path d="M278.513 20.5664L277.77 21.3099V22.0533C277.77 22.0533 278.654 21.605 278.952 21.4621C279.16 21.3623 279.122 21.1263 279.003 21.0125C278.91 20.924 278.513 20.5664 278.513 20.5664Z" fill="#FFD250"/>
<path d="M280.001 30.6043C276.516 30.6043 273.682 27.7696 273.682 24.2852H274.425C274.425 27.3599 276.926 29.8609 280.001 29.8609C283.076 29.8609 285.577 27.3599 285.577 24.2852H286.32C286.32 27.7696 283.485 30.6043 280.001 30.6043Z" fill="#AAD264"/>
<path d="M274.465 26.9934C274.744 26.9934 274.97 26.7675 274.97 26.4889C274.97 26.2102 274.744 25.9844 274.465 25.9844C274.187 25.9844 273.961 26.2102 273.961 26.4889C273.961 26.7675 274.187 26.9934 274.465 26.9934Z" fill="#FFE15A"/>
<path d="M275.581 28.7746C275.859 28.7746 276.085 28.5487 276.085 28.2701C276.085 27.9915 275.859 27.7656 275.581 27.7656C275.302 27.7656 275.076 27.9915 275.076 28.2701C275.076 28.5487 275.302 28.7746 275.581 28.7746Z" fill="#FFE15A"/>
<path d="M277.391 30.1223C277.67 30.1223 277.896 29.8964 277.896 29.6178C277.896 29.3391 277.67 29.1133 277.391 29.1133C277.113 29.1133 276.887 29.3391 276.887 29.6178C276.887 29.8964 277.113 30.1223 277.391 30.1223Z" fill="#FFE15A"/>
<path d="M285.59 26.9934C285.869 26.9934 286.095 26.7675 286.095 26.4889C286.095 26.2102 285.869 25.9844 285.59 25.9844C285.312 25.9844 285.086 26.2102 285.086 26.4889C285.086 26.7675 285.312 26.9934 285.59 26.9934Z" fill="#FFE15A"/>
<path d="M284.473 28.7746C284.752 28.7746 284.978 28.5487 284.978 28.2701C284.978 27.9915 284.752 27.7656 284.473 27.7656C284.195 27.7656 283.969 27.9915 283.969 28.2701C283.969 28.5487 284.195 28.7746 284.473 28.7746Z" fill="#FFE15A"/>
<path d="M282.661 30.1223C282.939 30.1223 283.165 29.8964 283.165 29.6178C283.165 29.3391 282.939 29.1133 282.661 29.1133C282.382 29.1133 282.156 29.3391 282.156 29.6178C282.156 29.8964 282.382 30.1223 282.661 30.1223Z" fill="#FFE15A"/>
<path d="M280.372 29.4869H279.628C279.218 29.4869 278.885 29.154 278.885 28.7435C278.885 28.3329 279.218 28 279.628 28H280.372C280.782 28 281.115 28.3329 281.115 28.7435C281.115 29.1541 280.782 29.4869 280.372 29.4869Z" fill="#FFB478"/>
<path d="M282.989 24.0961C283.237 24.824 283.764 25.49 284.46 25.7685L284.461 25.7688C285.204 19.0781 280 19.8214 280 19.8214C283.717 19.8214 282.989 24.0961 282.989 24.0961Z" fill="#9B4B5A"/>
</g>
<g clip-path="url(#clip1_128_955)">
<path d="M176.138 41.3797H127.862C127.386 41.3797 127 40.9937 127 40.5176V9.4832C127 9.00713 127.386 8.62109 127.862 8.62109H176.138C176.614 8.62109 177 9.00713 177 9.4832V40.5176C177 40.9938 176.614 41.3797 176.138 41.3797Z" fill="#73AF00"/>
<path d="M151.552 13.2038L133.383 24.2635C132.831 24.5993 132.831 25.4003 133.383 25.7362L151.552 36.796C151.827 36.9635 152.173 36.9635 152.449 36.796L170.618 25.7363C171.17 25.4005 171.17 24.5995 170.618 24.2636L152.449 13.2038C152.173 13.0362 151.827 13.0362 151.552 13.2038Z" fill="#FFE15A"/>
<path d="M152 31.8984C155.809 31.8984 158.896 28.8108 158.896 25.0019C158.896 21.1931 155.809 18.1055 152 18.1055C148.191 18.1055 145.104 21.1931 145.104 25.0019C145.104 28.8108 148.191 31.8984 152 31.8984Z" fill="#41479B"/>
<path d="M146.083 21.4718C145.757 22.0165 145.506 22.6085 145.34 23.2372C149.163 22.9495 154.819 24.019 158.418 27.5119C158.653 26.9121 158.808 26.2733 158.866 25.6054C155.149 22.4772 150.011 21.3648 146.083 21.4718Z" fill="#F5F5F5"/>
<path d="M152.285 27.3542L152.469 27.9048L153.049 27.9093C153.124 27.9099 153.155 28.0058 153.095 28.0504L152.628 28.3953L152.803 28.9486C152.826 29.0203 152.744 29.0795 152.683 29.0358L152.211 28.6983L151.739 29.0358C151.678 29.0795 151.596 29.0203 151.619 28.9486L151.794 28.3953L151.327 28.0504C151.266 28.0058 151.298 27.9099 151.373 27.9093L151.953 27.9048L152.137 27.3542C152.16 27.283 152.261 27.283 152.285 27.3542Z" fill="#F5F5F5"/>
<path d="M154.542 28.777L154.621 29.0139L154.87 29.0158C154.903 29.016 154.916 29.0573 154.89 29.0766L154.689 29.2249L154.764 29.4631C154.774 29.494 154.739 29.5195 154.713 29.5006L154.51 29.3554L154.306 29.5006C154.28 29.5195 154.245 29.494 154.255 29.4631L154.33 29.2249L154.129 29.0766C154.103 29.0574 154.116 29.0161 154.149 29.0158L154.398 29.0139L154.477 28.777C154.488 28.7462 154.531 28.7462 154.542 28.777Z" fill="#F5F5F5"/>
<path d="M151.311 26.3082L151.39 26.5451L151.64 26.547C151.672 26.5472 151.686 26.5885 151.66 26.6078L151.459 26.7561L151.534 26.9943C151.544 27.0251 151.509 27.0506 151.482 27.0318L151.279 26.8866L151.076 27.0318C151.05 27.0506 151.014 27.0251 151.024 26.9943L151.099 26.7561L150.898 26.6078C150.872 26.5886 150.886 26.5473 150.918 26.547L151.168 26.5451L151.247 26.3082C151.257 26.2775 151.301 26.2775 151.311 26.3082Z" fill="#F5F5F5"/>
<path d="M146.934 26.0191L147.013 26.256L147.263 26.258C147.295 26.2582 147.309 26.2995 147.283 26.3187L147.082 26.467L147.157 26.7052C147.167 26.7361 147.132 26.7616 147.105 26.7427L146.902 26.5975L146.699 26.7427C146.673 26.7616 146.637 26.7361 146.647 26.7052L146.722 26.467L146.522 26.3187C146.496 26.2996 146.509 26.2583 146.541 26.258L146.791 26.256L146.87 26.0191C146.881 25.9884 146.924 25.9884 146.934 26.0191Z" fill="#F5F5F5"/>
<path d="M150.596 28.6948L150.675 28.9317L150.925 28.9337C150.957 28.9339 150.971 28.9752 150.945 28.9944L150.744 29.1427L150.819 29.3809C150.829 29.4118 150.794 29.4373 150.767 29.4184L150.564 29.2732L150.361 29.4184C150.335 29.4373 150.3 29.4118 150.309 29.3809L150.385 29.1427L150.184 28.9944C150.158 28.9753 150.171 28.934 150.203 28.9337L150.453 28.9317L150.532 28.6948C150.543 28.6642 150.586 28.6642 150.596 28.6948Z" fill="#F5F5F5"/>
<path d="M148.581 25.8548L148.646 26.0485L148.85 26.0502C148.876 26.0504 148.887 26.0842 148.866 26.0999L148.702 26.2212L148.763 26.4159C148.771 26.4411 148.743 26.462 148.721 26.4466L148.555 26.3278L148.389 26.4466C148.367 26.462 148.338 26.4411 148.346 26.4159L148.408 26.2212L148.244 26.0999C148.222 26.0842 148.233 26.0504 148.26 26.0502L148.464 26.0485L148.529 25.8548C148.537 25.8297 148.573 25.8297 148.581 25.8548Z" fill="#F5F5F5"/>
<path d="M154.717 21.8556L154.798 22.098L155.054 22.1C155.087 22.1001 155.1 22.1424 155.074 22.1621L154.868 22.3138L154.945 22.5575C154.955 22.589 154.919 22.6151 154.892 22.5958L154.684 22.4472L154.477 22.5958C154.45 22.6152 154.414 22.5889 154.424 22.5575L154.501 22.3138L154.295 22.1621C154.269 22.1424 154.282 22.1002 154.315 22.1L154.571 22.098L154.652 21.8556C154.662 21.8242 154.707 21.8242 154.717 21.8556Z" fill="#F5F5F5"/>
<path d="M147.216 24.6712L147.28 24.8649L147.485 24.8666C147.511 24.8668 147.522 24.9006 147.501 24.9163L147.336 25.0376L147.398 25.2323C147.406 25.2575 147.377 25.2784 147.356 25.263L147.19 25.1442L147.023 25.263C147.002 25.2784 146.973 25.2575 146.981 25.2323L147.043 25.0376L146.878 24.9163C146.857 24.9006 146.868 24.8669 146.895 24.8666L147.099 24.8649L147.164 24.6712C147.172 24.6461 147.207 24.6461 147.216 24.6712Z" fill="#F5F5F5"/>
<path d="M148.202 27.3995L148.3 27.6931L148.609 27.6954C148.649 27.6957 148.666 27.7468 148.633 27.7706L148.384 27.9544L148.478 28.2493C148.49 28.2875 148.446 28.3191 148.414 28.2958L148.162 28.1159L147.91 28.2958C147.878 28.319 147.834 28.2875 147.846 28.2493L147.94 27.9544L147.691 27.7706C147.659 27.7468 147.675 27.6957 147.715 27.6954L148.025 27.6931L148.122 27.3995C148.135 27.3616 148.189 27.3616 148.202 27.3995Z" fill="#F5F5F5"/>
<path d="M155.799 28.8383L155.86 29.0229L156.055 29.0244C156.08 29.0246 156.091 29.0567 156.071 29.0717L155.914 29.1873L155.973 29.3728C155.98 29.3968 155.953 29.4167 155.932 29.402L155.774 29.2888L155.616 29.402C155.595 29.4167 155.568 29.3968 155.575 29.3728L155.634 29.1873L155.477 29.0717C155.457 29.0567 155.468 29.0246 155.493 29.0244L155.688 29.0229L155.749 28.8383C155.757 28.8143 155.791 28.8143 155.799 28.8383Z" fill="#F5F5F5"/>
<path d="M156.481 27.4293L156.56 27.6662L156.81 27.6682C156.842 27.6684 156.856 27.7097 156.83 27.7289L156.629 27.8773L156.704 28.1155C156.714 28.1463 156.679 28.1718 156.652 28.153L156.449 28.0077L156.246 28.153C156.219 28.1718 156.184 28.1463 156.194 28.1155L156.269 27.8773L156.068 27.7289C156.042 27.7098 156.056 27.6685 156.088 27.6682L156.338 27.6662L156.417 27.4293C156.427 27.3986 156.471 27.3986 156.481 27.4293Z" fill="#F5F5F5"/>
</g>
<g clip-path="url(#clip2_128_955)">
<path d="M191.864 41.3797H240.14C240.616 41.3797 241.002 40.9937 241.002 40.5176V9.4832C241.002 9.00713 240.616 8.62109 240.14 8.62109H191.864C191.388 8.62119 191.002 9.00713 191.002 9.4832V40.5176C191.002 40.9938 191.388 41.3797 191.864 41.3797Z" fill="#C8414B"/>
<path d="M241.002 15.5195H191.002V34.4853H241.002V15.5195Z" fill="#FFD250"/>
<path d="M212.122 25.0005L212.853 21.7113C212.92 21.4084 212.689 21.1211 212.379 21.1211H211.864C211.554 21.1211 211.323 21.4084 211.391 21.7113L212.122 25.0005Z" fill="#C8414B"/>
<path d="M212.984 23.2773H211.26V30.6045H212.984V23.2773Z" fill="#F5F5F5"/>
<path d="M213.414 22.4141H210.828V23.2762H213.414V22.4141Z" fill="#FAB446"/>
<path d="M213.418 25H209.107V25.8621H213.418V25Z" fill="#C8414B"/>
<path d="M213.418 28.4468L210.832 27.5848V26.7227L213.418 27.5848V28.4468Z" fill="#C8414B"/>
<path d="M199.194 25.0005L199.925 21.7113C199.992 21.4084 199.762 21.1211 199.451 21.1211H198.936C198.626 21.1211 198.396 21.4084 198.463 21.7113L199.194 25.0005Z" fill="#C8414B"/>
<path d="M202.21 22.4141C201.734 22.4141 201.348 22.8001 201.348 23.2762V28.8796C201.348 29.9269 202.325 31.8969 205.658 31.8969C208.991 31.8969 209.968 29.927 209.968 28.8796V23.2762C209.968 22.8001 209.582 22.4141 209.106 22.4141H202.21Z" fill="#F5F5F5"/>
<path d="M205.658 26.7244H201.348V23.2762C201.348 22.8001 201.734 22.4141 202.21 22.4141H205.658V26.7244Z" fill="#C8414B"/>
<path d="M205.658 26.7227H209.969V28.8778C209.969 30.0682 209.004 31.033 207.813 31.033C206.623 31.033 205.658 30.0682 205.658 28.8778V26.7227Z" fill="#C8414B"/>
<path d="M201.348 26.7227H205.658V28.8778C205.658 30.0682 204.693 31.033 203.503 31.033C202.312 31.033 201.348 30.0682 201.348 28.8778V26.7227Z" fill="#FAB446"/>
<path d="M204.794 30.5923V26.7227H203.932V30.9895C204.252 30.9245 204.542 30.7825 204.794 30.5923Z" fill="#C8414B"/>
<path d="M203.069 30.9895V26.7227H202.207V30.5923C202.459 30.7825 202.749 30.9245 203.069 30.9895Z" fill="#C8414B"/>
<path d="M204.795 25H202.209V25.8621H204.795V25Z" fill="#FFB441"/>
<path d="M204.795 23.2773H202.209V24.1395H204.795V23.2773Z" fill="#FAB446"/>
<path d="M204.363 23.7891H202.639V25.3508H204.363V23.7891Z" fill="#FAB446"/>
<path d="M200.052 23.2773H198.328V30.6045H200.052V23.2773Z" fill="#F5F5F5"/>
<path d="M200.483 30.1719H197.896V31.034H200.483V30.1719Z" fill="#FAB446"/>
<path d="M200.483 22.4141H197.896V23.2762H200.483V22.4141Z" fill="#FAB446"/>
<path d="M200.915 31.0352H197.467V31.8973H200.915V31.0352Z" fill="#5064AA"/>
<path d="M213.846 30.1719H211.26V31.034H213.846V30.1719Z" fill="#FAB446"/>
<path d="M213.847 31.0352H210.398V31.8973H213.847V31.0352Z" fill="#5064AA"/>
<path d="M208.243 21.5508H203.07V22.4129H208.243V21.5508Z" fill="#FAB446"/>
<path d="M206.089 18.9648H205.227V21.5511H206.089V18.9648Z" fill="#FFB441"/>
<path d="M204.795 20.258C204.082 20.258 203.502 19.6779 203.502 18.9649C203.502 18.2519 204.082 17.6719 204.795 17.6719C205.508 17.6719 206.088 18.252 206.088 18.9649C206.088 19.6779 205.508 20.258 204.795 20.258ZM204.795 18.5339C204.557 18.5339 204.364 18.727 204.364 18.9649C204.364 19.2027 204.557 19.396 204.795 19.396C205.033 19.396 205.226 19.2028 205.226 18.9649C205.226 18.7271 205.033 18.5339 204.795 18.5339Z" fill="#F5F5F5"/>
<path d="M206.52 20.258C205.807 20.258 205.227 19.6779 205.227 18.9649C205.227 18.2519 205.807 17.6719 206.52 17.6719C207.233 17.6719 207.813 18.252 207.813 18.9649C207.813 19.6779 207.233 20.258 206.52 20.258ZM206.52 18.5339C206.282 18.5339 206.089 18.727 206.089 18.9649C206.089 19.2027 206.282 19.396 206.52 19.396C206.757 19.396 206.951 19.2028 206.951 18.9649C206.951 18.7271 206.757 18.5339 206.52 18.5339Z" fill="#F5F5F5"/>
<path d="M208.242 21.1213C207.529 21.1213 206.949 20.5412 206.949 19.8282C206.949 19.1151 207.529 18.5352 208.242 18.5352C208.955 18.5352 209.535 19.1152 209.535 19.8282C209.535 20.5412 208.955 21.1213 208.242 21.1213ZM208.242 19.3972C208.004 19.3972 207.811 19.5903 207.811 19.8282C207.811 20.066 208.004 20.2593 208.242 20.2593C208.48 20.2593 208.673 20.0661 208.673 19.8282C208.673 19.5903 208.48 19.3972 208.242 19.3972Z" fill="#F5F5F5"/>
<path d="M203.07 21.1213C202.357 21.1213 201.777 20.5412 201.777 19.8282C201.777 19.1151 202.357 18.5352 203.07 18.5352C203.783 18.5352 204.363 19.1152 204.363 19.8282C204.364 20.5412 203.783 21.1213 203.07 21.1213ZM203.07 19.3972C202.833 19.3972 202.639 19.5903 202.639 19.8282C202.639 20.066 202.833 20.2593 203.07 20.2593C203.308 20.2593 203.501 20.066 203.501 19.8281C203.501 19.5903 203.308 19.3972 203.07 19.3972Z" fill="#F5F5F5"/>
<path d="M208.244 28.4479V28.879C208.244 29.1167 208.05 29.3101 207.813 29.3101C207.575 29.3101 207.382 29.1167 207.382 28.879V28.4479H208.244ZM209.106 27.5859H206.52V28.879C206.52 29.5921 207.1 30.1721 207.813 30.1721C208.526 30.1721 209.106 29.592 209.106 28.879V27.5859H209.106Z" fill="#FAB446"/>
<path d="M207.811 25.8637C207.335 25.8637 206.949 25.4776 206.949 25.0016V24.1395C206.949 23.6634 207.335 23.2773 207.811 23.2773C208.287 23.2773 208.673 23.6634 208.673 24.1395V25.0016C208.673 25.4776 208.287 25.8637 207.811 25.8637Z" fill="#FFA0D2"/>
<path d="M205.656 28.0158C206.37 28.0158 206.949 27.4369 206.949 26.7228C206.949 26.0086 206.37 25.4297 205.656 25.4297C204.942 25.4297 204.363 26.0086 204.363 26.7228C204.363 27.4369 204.942 28.0158 205.656 28.0158Z" fill="#5064AA"/>
<path d="M206.089 17.2422H205.227V19.8284H206.089V17.2422Z" fill="#FAB446"/>
<path d="M203.071 21.5511L202.209 20.689L202.714 20.184C203.495 19.4034 204.553 18.9648 205.657 18.9648C206.761 18.9648 207.82 19.4034 208.601 20.184L209.106 20.689L208.244 21.5511H203.071Z" fill="#C8414B"/>
<path d="M205.656 21.1199C205.894 21.1199 206.087 20.9269 206.087 20.6889C206.087 20.4508 205.894 20.2578 205.656 20.2578C205.418 20.2578 205.225 20.4508 205.225 20.6889C205.225 20.9269 205.418 21.1199 205.656 21.1199Z" fill="#FFD250"/>
<path d="M203.931 21.1199C204.169 21.1199 204.362 20.9269 204.362 20.6889C204.362 20.4508 204.169 20.2578 203.931 20.2578C203.693 20.2578 203.5 20.4508 203.5 20.6889C203.5 20.9269 203.693 21.1199 203.931 21.1199Z" fill="#FFD250"/>
<path d="M207.38 21.1199C207.618 21.1199 207.811 20.9269 207.811 20.6889C207.811 20.4508 207.618 20.2578 207.38 20.2578C207.142 20.2578 206.949 20.4508 206.949 20.6889C206.949 20.9269 207.142 21.1199 207.38 21.1199Z" fill="#FFD250"/>
<path d="M202.207 25H197.896V25.8621H202.207V25Z" fill="#C8414B"/>
<path d="M197.896 28.4468L200.483 27.5848V26.7227L197.896 27.5848V28.4468Z" fill="#C8414B"/>
</g>
<g clip-path="url(#clip3_128_955)">
<path d="M49.998 19.5407H-0.00195312V9.4832C-0.00195312 9.00713 0.384081 8.62109 0.860155 8.62109H49.1359C49.612 8.62109 49.998 9.00713 49.998 9.4832L49.998 19.5407Z" fill="#82AFFF"/>
<path d="M49.1358 41.3804H0.860155C0.384081 41.3804 -0.00195312 40.9944 -0.00195312 40.5183V30.4609H49.998V40.5183C49.998 40.9945 49.6119 41.3804 49.1358 41.3804Z" fill="#82AFFF"/>
<path d="M49.9999 19.5391H0V30.458H49.9999V19.5391Z" fill="#F5F5F5"/>
<path d="M29.3103 24.7863H26.2064C26.2643 24.7424 26.3101 24.6991 26.3516 24.6583C26.4273 24.5842 26.4876 24.5253 26.6474 24.4596C26.8082 24.3922 26.8924 24.3914 26.9989 24.3897C27.1272 24.3889 27.2725 24.3864 27.5099 24.2887C27.747 24.1901 27.8505 24.0891 27.9419 23.9999C28.0177 23.9258 28.0779 23.8669 28.2382 23.8003C28.3976 23.7338 28.4815 23.7329 28.5875 23.7321C28.7155 23.7304 28.8606 23.7288 29.098 23.6303L28.9322 23.2328C28.7727 23.2993 28.6889 23.3002 28.5829 23.301C28.4549 23.3027 28.3098 23.3043 28.0727 23.402C27.8358 23.5006 27.7322 23.6017 27.6408 23.6908C27.565 23.7649 27.5048 23.8238 27.3449 23.8895C27.1842 23.9569 27.1 23.9577 26.9934 23.9594C26.8651 23.9602 26.7198 23.9627 26.4824 24.0612C26.2455 24.1589 26.1419 24.2608 26.0505 24.35C25.9759 24.4226 25.9142 24.4807 25.7608 24.5455L28.2003 22.1063L27.8955 21.8016L25.6997 23.9972C25.7094 23.9254 25.712 23.8615 25.7126 23.8036C25.7139 23.6967 25.7147 23.6133 25.7812 23.4525C25.8477 23.2918 25.9066 23.2319 25.9808 23.1562C26.0709 23.0644 26.1724 22.9602 26.2708 22.7227C26.3688 22.4853 26.3706 22.3405 26.3719 22.2126C26.3731 22.1065 26.374 22.0223 26.44 21.8624C26.5065 21.7024 26.565 21.6427 26.6391 21.5669C26.7288 21.4751 26.8302 21.3715 26.9284 21.135L26.5303 20.97C26.4638 21.13 26.4053 21.1897 26.3311 21.2655C26.2415 21.3573 26.1401 21.4609 26.0419 21.6975C25.9438 21.9349 25.9421 22.0797 25.9408 22.2076C25.9395 22.3137 25.9387 22.3979 25.8726 22.5578C25.8061 22.7186 25.7473 22.7784 25.673 22.8541C25.583 22.9459 25.4815 23.0502 25.3831 23.2876C25.2851 23.525 25.2833 23.6707 25.2817 23.7986C25.2809 23.9024 25.2779 23.9863 25.2157 24.1404V20.6914H24.7847V23.7952C24.7407 23.7377 24.6976 23.692 24.6571 23.6506C24.5827 23.5748 24.5241 23.5142 24.4575 23.3543C24.391 23.1936 24.3897 23.1094 24.3885 23.0023C24.3872 22.8743 24.3855 22.7287 24.2871 22.4913C24.1891 22.2548 24.0875 22.1513 23.9978 22.0594C23.9237 21.9836 23.8653 21.9238 23.7987 21.7639C23.7327 21.6039 23.7318 21.5197 23.7306 21.4137C23.7293 21.2856 23.7276 21.1409 23.6295 20.9043L23.2313 21.0692C23.2974 21.2292 23.2982 21.3126 23.2995 21.4186C23.3008 21.5466 23.3024 21.6913 23.4006 21.9287C23.4986 22.1652 23.6002 22.2687 23.6898 22.3606C23.764 22.4364 23.8224 22.4962 23.889 22.6561C23.9555 22.8169 23.9567 22.9011 23.958 23.0081C23.9593 23.1361 23.9609 23.2817 24.0594 23.5191C24.1574 23.7565 24.259 23.8601 24.3486 23.9518C24.4217 24.0261 24.4795 24.0881 24.5443 24.2411L22.1047 21.8018L21.7999 22.1065L24.2357 24.5421C24.1021 24.4814 24.0377 24.4257 23.9677 24.3577C23.8756 24.2677 23.7716 24.1658 23.5333 24.0673C23.2959 23.9696 23.1507 23.9671 23.0223 23.9654C22.9153 23.9645 22.8312 23.963 22.6691 23.8956C22.507 23.8291 22.4465 23.7702 22.3694 23.6953C22.2773 23.606 22.1728 23.5043 21.9342 23.4049C21.6959 23.3063 21.5502 23.3047 21.4215 23.303C21.3142 23.3013 21.2296 23.2997 21.0675 23.2323L20.9025 23.6313C21.1408 23.7299 21.2865 23.7315 21.4152 23.7332C21.5226 23.735 21.6071 23.7365 21.7692 23.8039C21.9317 23.8704 21.9923 23.9293 22.0693 24.0042C22.1614 24.0942 22.2659 24.1952 22.5041 24.2938C22.7424 24.3932 22.8881 24.3949 23.0164 24.3966C23.1233 24.3983 23.2074 24.399 23.3687 24.4664C23.53 24.5329 23.5902 24.5918 23.6664 24.666C23.7056 24.7044 23.7493 24.745 23.8022 24.7864H20.6895V25.2175H24.1322C23.9962 25.2692 23.9111 25.2758 23.8136 25.2772C23.6852 25.2781 23.5399 25.2806 23.3021 25.3783C23.0644 25.4768 22.9599 25.5786 22.8678 25.668C22.7911 25.7429 22.731 25.8017 22.5697 25.8682C22.4076 25.9356 22.323 25.9373 22.2157 25.939C22.0869 25.9407 21.9413 25.9423 21.703 26.0408C21.4644 26.1401 21.36 26.2411 21.2678 26.3312C21.1907 26.4061 21.1302 26.465 20.9681 26.5315L21.133 26.9306C21.3713 26.8312 21.4757 26.7303 21.5678 26.6401C21.6448 26.5652 21.7054 26.5063 21.8679 26.4398C22.03 26.3725 22.1145 26.3708 22.2219 26.3691C22.3507 26.3674 22.4963 26.3658 22.7351 26.2664C22.9725 26.1679 23.0765 26.0668 23.1686 25.9767C23.2447 25.9026 23.3054 25.8437 23.4671 25.7771C23.6278 25.7098 23.7125 25.709 23.819 25.7073C23.8735 25.707 23.935 25.7034 24.0015 25.6952L21.7994 27.897L22.1042 28.2017L24.5389 25.7675C24.4789 25.9005 24.4235 25.9646 24.3554 26.0349C24.2657 26.1266 24.1643 26.2309 24.0657 26.4683C23.9671 26.7057 23.965 26.8523 23.9639 26.9802C23.9621 27.0871 23.9614 27.1712 23.8943 27.3329C23.8274 27.4954 23.7681 27.5559 23.6935 27.6326C23.6035 27.7244 23.502 27.8296 23.4031 28.0679C23.3042 28.3061 23.3024 28.4518 23.3009 28.5806C23.2991 28.6875 23.2979 28.7724 23.2311 28.9341L23.6292 29.099C23.7281 28.8607 23.7299 28.715 23.7314 28.5863C23.7332 28.4794 23.7344 28.3944 23.8013 28.2328C23.8682 28.0703 23.9275 28.0098 24.002 27.9331C24.0921 27.8413 24.1935 27.7361 24.2925 27.4978C24.391 27.2604 24.3932 27.1139 24.3943 26.986C24.3961 26.8791 24.3968 26.795 24.4639 26.6333C24.5304 26.4717 24.5893 26.4118 24.6638 26.3352C24.702 26.296 24.7428 26.2521 24.7842 26.199V29.3121H25.2152V25.8695C25.2666 26.0053 25.2731 26.0901 25.2746 26.188C25.2759 26.316 25.2779 26.4616 25.3765 26.699C25.4745 26.9373 25.5764 27.0417 25.6661 27.1334C25.7405 27.21 25.7995 27.2706 25.8664 27.4322C25.9333 27.5938 25.9346 27.6789 25.9362 27.7857C25.938 27.9145 25.9395 28.0601 26.0385 28.2984C26.1374 28.5367 26.2388 28.642 26.3289 28.7337C26.4033 28.8103 26.4627 28.8709 26.5297 29.0334L26.9278 28.8684C26.8289 28.6302 26.7275 28.5249 26.6374 28.4332C26.563 28.3565 26.5036 28.296 26.4366 28.1335C26.3697 27.9719 26.3684 27.8868 26.3668 27.78C26.365 27.6512 26.3635 27.5056 26.2645 27.2673C26.166 27.029 26.0646 26.9246 25.9749 26.8329C25.9005 26.7562 25.8415 26.6957 25.7746 26.5341C25.7077 26.3733 25.7068 26.2891 25.7051 26.1821C25.7045 26.1277 25.701 26.0662 25.6928 25.9997L27.8951 28.2018L28.1999 27.8971L26.0044 25.7019C26.0757 25.7114 26.1395 25.7142 26.1971 25.715C26.3035 25.7159 26.3874 25.7168 26.5481 25.7832C26.7089 25.8506 26.7691 25.9086 26.8453 25.9835C26.9371 26.0727 27.041 26.1745 27.2785 26.2731C27.5155 26.3708 27.6607 26.3725 27.7887 26.3733C27.8947 26.3751 27.9785 26.3758 28.1385 26.4424C28.2984 26.508 28.3582 26.567 28.434 26.6411C28.5258 26.7304 28.6294 26.8321 28.8663 26.9307L29.0312 26.5317C28.8713 26.4661 28.8115 26.4071 28.7357 26.333C28.6439 26.2437 28.5403 26.142 28.3034 26.0433C28.0665 25.9457 27.9212 25.944 27.7932 25.9432C27.6872 25.9414 27.6034 25.9407 27.4434 25.8741C27.2827 25.8076 27.2224 25.7495 27.1463 25.6745C27.0545 25.5852 26.9506 25.4835 26.7131 25.3857C26.4757 25.2864 26.3305 25.2847 26.202 25.2839C26.0975 25.2821 26.0129 25.2802 25.8579 25.2174H29.31V24.7863H29.3103Z" fill="#F09146"/>
<path d="M24.999 27.1543C26.1893 27.1543 27.1543 26.1893 27.1543 24.999C27.1543 23.8087 26.1893 22.8438 24.999 22.8438C23.8087 22.8438 22.8438 23.8087 22.8438 24.999C22.8438 26.1893 23.8087 27.1543 24.999 27.1543Z" fill="#FFE15A"/>
</g>
<g clip-path="url(#clip4_128_955)">
<path d="M113.138 41.3797H64.8621C64.386 41.3797 64 40.9937 64 40.5176V9.4832C64 9.00713 64.386 8.62109 64.8621 8.62109H113.138C113.614 8.62109 114 9.00713 114 9.4832V40.5176C114 40.9938 113.614 41.3797 113.138 41.3797Z" fill="#F5F5F5"/>
<path d="M114 11.1411H64V9.4832C64 9.00713 64.386 8.62109 64.8621 8.62109H113.138C113.614 8.62109 114 9.00713 114 9.4832L114 11.1411Z" fill="#FF4B55"/>
<path d="M114 18.6992H64V21.2191H114V18.6992Z" fill="#FF4B55"/>
<path d="M114 13.6602H64V16.1801H114V13.6602Z" fill="#FF4B55"/>
<path d="M114 26.2622H64.8621C64.386 26.2622 64 25.8762 64 25.4001V23.7422H114V26.2622Z" fill="#FF4B55"/>
<path d="M114 33.8203H64V36.3402H114V33.8203Z" fill="#FF4B55"/>
<path d="M113.138 41.3793H64.8621C64.386 41.3793 64 40.9933 64 40.5172V38.8594H114V40.5173C114 40.9934 113.614 41.3793 113.138 41.3793Z" fill="#FF4B55"/>
<path d="M114 28.7812H64V31.3012H114V28.7812Z" fill="#FF4B55"/>
<path d="M86.4137 8.62109H64.8621C64.386 8.62109 64 9.00703 64 9.4831V25.3981C64 25.8742 64.386 26.2602 64.8621 26.2602H86.4138C86.8899 26.2602 87.2759 25.8742 87.2759 25.3981V9.4831C87.2758 9.00703 86.8898 8.62109 86.4137 8.62109Z" fill="#41479B"/>
<path d="M66.4215 10.5985L66.6123 11.1708L67.2156 11.1754C67.2937 11.1761 67.326 11.2757 67.2632 11.3221L66.778 11.6805L66.96 12.2556C66.9836 12.33 66.8988 12.3917 66.8352 12.3462L66.3445 11.9955L65.8537 12.3463C65.7902 12.3917 65.7055 12.3301 65.7289 12.2557L65.911 11.6806L65.4257 11.3222C65.3629 11.2757 65.3952 11.1762 65.4734 11.1755L66.0766 11.1709L66.2674 10.5986C66.292 10.5244 66.3967 10.5244 66.4215 10.5985Z" fill="#F5F5F5"/>
<path d="M66.4215 13.5907L66.6123 14.1629L67.2156 14.1675C67.2937 14.1682 67.326 14.2678 67.2632 14.3142L66.778 14.6726L66.96 15.2477C66.9836 15.3221 66.8988 15.3838 66.8352 15.3383L66.3445 14.9876L65.8537 15.3384C65.7902 15.3838 65.7055 15.3222 65.7289 15.2478L65.911 14.6727L65.4257 14.3143C65.3629 14.2678 65.3952 14.1683 65.4734 14.1676L66.0766 14.163L66.2674 13.5908C66.292 13.5166 66.3967 13.5166 66.4215 13.5907Z" fill="#F5F5F5"/>
<path d="M66.4215 16.5868L66.6123 17.159L67.2156 17.1636C67.2937 17.1643 67.326 17.2639 67.2632 17.3103L66.778 17.6687L66.96 18.2438C66.9836 18.3182 66.8988 18.3799 66.8352 18.3344L66.3445 17.9837L65.8537 18.3345C65.7902 18.3799 65.7055 18.3183 65.7289 18.2439L65.911 17.6688L65.4257 17.3104C65.3629 17.2639 65.3952 17.1644 65.4734 17.1637L66.0766 17.1591L66.2674 16.5869C66.292 16.5127 66.3967 16.5127 66.4215 16.5868Z" fill="#F5F5F5"/>
<path d="M66.4215 19.579L66.6123 20.1513L67.2156 20.1559C67.2937 20.1566 67.326 20.2562 67.2632 20.3026L66.778 20.6609L66.96 21.236C66.9836 21.3105 66.8988 21.3722 66.8352 21.3267L66.3445 20.976L65.8537 21.3268C65.7902 21.3722 65.7055 21.3106 65.7289 21.2361L65.911 20.661L65.4257 20.3026C65.3629 20.2562 65.3952 20.1567 65.4734 20.156L66.0766 20.1514L66.2674 19.5791C66.292 19.5049 66.3967 19.5049 66.4215 19.579Z" fill="#F5F5F5"/>
<path d="M66.4215 22.5713L66.6123 23.1435L67.2156 23.1481C67.2937 23.1488 67.326 23.2484 67.2632 23.2948L66.778 23.6532L66.96 24.2283C66.9836 24.3027 66.8988 24.3644 66.8352 24.3189L66.3445 23.9682L65.8537 24.319C65.7902 24.3644 65.7055 24.3028 65.7289 24.2284L65.911 23.6533L65.4257 23.2949C65.3629 23.2484 65.3952 23.1489 65.4734 23.1482L66.0766 23.1436L66.2674 22.5714C66.292 22.4971 66.3967 22.4971 66.4215 22.5713Z" fill="#F5F5F5"/>
<path d="M68.7457 12.0672L68.9366 12.6395L69.5398 12.6441C69.6179 12.6448 69.6502 12.7444 69.5874 12.7908L69.1022 13.1492L69.2842 13.7243C69.3078 13.7987 69.223 13.8604 69.1594 13.8149L68.6687 13.4641L68.178 13.8149C68.1144 13.8603 68.0297 13.7987 68.0532 13.7243L68.2352 13.1492L67.7499 12.7908C67.6871 12.7443 67.7195 12.6448 67.7976 12.6441L68.4008 12.6395L68.5916 12.0672C68.6161 11.9932 68.721 11.9932 68.7457 12.0672Z" fill="#F5F5F5"/>
<path d="M68.7457 15.0595L68.9366 15.6318L69.5398 15.6364C69.6179 15.637 69.6502 15.7366 69.5874 15.783L69.1022 16.1414L69.2842 16.7165C69.3078 16.7909 69.223 16.8527 69.1594 16.8071L68.6687 16.4564L68.178 16.8071C68.1144 16.8526 68.0297 16.791 68.0532 16.7165L68.2352 16.1414L67.7499 15.783C67.6871 15.7365 67.7195 15.637 67.7976 15.6364L68.4008 15.6318L68.5916 15.0595C68.6161 14.9854 68.721 14.9854 68.7457 15.0595Z" fill="#F5F5F5"/>
<path d="M68.7457 18.0517L68.9366 18.6239L69.5398 18.6285C69.6179 18.6292 69.6502 18.7288 69.5874 18.7752L69.1022 19.1336L69.2842 19.7087C69.3078 19.7831 69.223 19.8448 69.1594 19.7993L68.6687 19.4486L68.178 19.7993C68.1144 19.8447 68.0297 19.7831 68.0532 19.7087L68.2352 19.1336L67.7499 18.7752C67.6871 18.7287 67.7195 18.6292 67.7976 18.6285L68.4008 18.6239L68.5916 18.0517C68.6161 17.9776 68.721 17.9776 68.7457 18.0517Z" fill="#F5F5F5"/>
<path d="M68.7457 21.0477L68.9366 21.62L69.5398 21.6246C69.6179 21.6252 69.6502 21.7249 69.5874 21.7712L69.1022 22.1296L69.2842 22.7047C69.3078 22.7791 69.223 22.8409 69.1594 22.7954L68.6687 22.4446L68.178 22.7954C68.1144 22.8408 68.0297 22.7791 68.0532 22.7047L68.2352 22.1296L67.7499 21.7712C67.6871 21.7248 67.7195 21.6252 67.7976 21.6246L68.4008 21.62L68.5916 21.0477C68.6161 20.9737 68.721 20.9737 68.7457 21.0477Z" fill="#F5F5F5"/>
<path d="M71.068 10.5986L71.2588 11.1708L71.862 11.1754C71.9402 11.1761 71.9725 11.2757 71.9097 11.3221L71.4244 11.6805L71.6065 12.2556C71.6301 12.33 71.5452 12.3917 71.4817 12.3462L70.991 11.9954L70.5002 12.3462C70.4367 12.3916 70.352 12.33 70.3754 12.2556L70.5575 11.6805L70.0722 11.3221C70.0094 11.2756 70.0417 11.1761 70.1199 11.1754L70.7231 11.1708L70.9139 10.5986C70.9385 10.5244 71.0433 10.5244 71.068 10.5986Z" fill="#F5F5F5"/>
<path d="M71.068 13.5907L71.2588 14.1629L71.862 14.1675C71.9402 14.1682 71.9725 14.2678 71.9097 14.3142L71.4244 14.6726L71.6065 15.2477C71.6301 15.3221 71.5452 15.3838 71.4817 15.3383L70.991 14.9875L70.5002 15.3383C70.4367 15.3837 70.352 15.3221 70.3754 15.2477L70.5575 14.6726L70.0722 14.3142C70.0094 14.2677 70.0417 14.1682 70.1199 14.1675L70.7231 14.1629L70.9139 13.5907C70.9385 13.5167 71.0433 13.5167 71.068 13.5907Z" fill="#F5F5F5"/>
<path d="M71.068 16.5868L71.2588 17.159L71.862 17.1636C71.9402 17.1643 71.9725 17.2639 71.9097 17.3103L71.4244 17.6687L71.6065 18.2438C71.6301 18.3182 71.5452 18.3799 71.4817 18.3344L70.991 17.9836L70.5002 18.3344C70.4367 18.3798 70.352 18.3182 70.3754 18.2438L70.5575 17.6687L70.0722 17.3103C70.0094 17.2638 70.0417 17.1643 70.1199 17.1636L70.7231 17.159L70.9139 16.5868C70.9385 16.5127 71.0433 16.5127 71.068 16.5868Z" fill="#F5F5F5"/>
<path d="M71.068 19.579L71.2588 20.1513L71.862 20.1559C71.9402 20.1566 71.9725 20.2562 71.9097 20.3026L71.4244 20.661L71.6065 21.2361C71.6301 21.3105 71.5452 21.3722 71.4817 21.3267L70.991 20.9759L70.5002 21.3267C70.4367 21.3721 70.352 21.3105 70.3754 21.2361L70.5575 20.661L70.0722 20.3026C70.0094 20.2561 70.0417 20.1566 70.1199 20.1559L70.7231 20.1513L70.9139 19.579C70.9385 19.5049 71.0433 19.5049 71.068 19.579Z" fill="#F5F5F5"/>
<path d="M71.068 22.5713L71.2588 23.1436L71.862 23.1481C71.9402 23.1488 71.9725 23.2484 71.9097 23.2948L71.4244 23.6532L71.6065 24.2283C71.6301 24.3027 71.5452 24.3644 71.4817 24.3189L70.991 23.9682L70.5002 24.3189C70.4367 24.3643 70.352 24.3027 70.3754 24.2283L70.5575 23.6532L70.0722 23.2948C70.0094 23.2483 70.0417 23.1488 70.1199 23.1481L70.7231 23.1436L70.9139 22.5713C70.9385 22.4971 71.0433 22.4971 71.068 22.5713Z" fill="#F5F5F5"/>
<path d="M73.3922 12.0672L73.583 12.6395L74.1863 12.6441C74.2644 12.6448 74.2967 12.7444 74.2339 12.7908L73.7487 13.1492L73.9307 13.7243C73.9543 13.7987 73.8695 13.8604 73.8059 13.8149L73.3152 13.4641L72.8244 13.8149C72.7609 13.8603 72.6762 13.7987 72.6996 13.7243L72.8817 13.1492L72.3964 12.7908C72.3336 12.7443 72.366 12.6448 72.4441 12.6441L73.0473 12.6395L73.2381 12.0672C73.2626 11.9932 73.3675 11.9932 73.3922 12.0672Z" fill="#F5F5F5"/>
<path d="M73.3922 15.0595L73.583 15.6318L74.1863 15.6364C74.2644 15.637 74.2967 15.7366 74.2339 15.783L73.7487 16.1414L73.9307 16.7165C73.9543 16.7909 73.8695 16.8527 73.8059 16.8071L73.3152 16.4564L72.8244 16.8071C72.7609 16.8526 72.6762 16.791 72.6996 16.7165L72.8817 16.1414L72.3964 15.783C72.3336 15.7365 72.366 15.637 72.4441 15.6364L73.0473 15.6318L73.2381 15.0595C73.2626 14.9854 73.3675 14.9854 73.3922 15.0595Z" fill="#F5F5F5"/>
<path d="M73.3922 18.0517L73.583 18.6239L74.1863 18.6285C74.2644 18.6292 74.2967 18.7288 74.2339 18.7752L73.7487 19.1336L73.9307 19.7087C73.9543 19.7831 73.8695 19.8448 73.8059 19.7993L73.3152 19.4486L72.8244 19.7993C72.7609 19.8447 72.6762 19.7831 72.6996 19.7087L72.8817 19.1336L72.3964 18.7752C72.3336 18.7287 72.366 18.6292 72.4441 18.6285L73.0473 18.6239L73.2381 18.0517C73.2626 17.9776 73.3675 17.9776 73.3922 18.0517Z" fill="#F5F5F5"/>
<path d="M73.3922 21.0477L73.583 21.62L74.1863 21.6246C74.2644 21.6252 74.2967 21.7249 74.2339 21.7712L73.7487 22.1296L73.9307 22.7047C73.9543 22.7791 73.8695 22.8409 73.8059 22.7954L73.3152 22.4446L72.8244 22.7954C72.7609 22.8408 72.6762 22.7791 72.6996 22.7047L72.8817 22.1296L72.3964 21.7712C72.3336 21.7248 72.366 21.6252 72.4441 21.6246L73.0473 21.62L73.2381 21.0477C73.2626 20.9737 73.3675 20.9737 73.3922 21.0477Z" fill="#F5F5F5"/>
<path d="M75.7165 10.5986L75.9074 11.1708L76.5106 11.1754C76.5887 11.1761 76.621 11.2757 76.5582 11.3221L76.073 11.6805L76.255 12.2556C76.2786 12.33 76.1938 12.3917 76.1302 12.3462L75.6394 11.9954L75.1487 12.3462C75.0851 12.3916 75.0004 12.33 75.0239 12.2556L75.2059 11.6805L74.7206 11.3221C74.6578 11.2756 74.6902 11.1761 74.7683 11.1754L75.3715 11.1708L75.5623 10.5986C75.587 10.5244 75.6918 10.5244 75.7165 10.5986Z" fill="#F5F5F5"/>
<path d="M75.7165 13.5907L75.9074 14.1629L76.5106 14.1675C76.5887 14.1682 76.621 14.2678 76.5582 14.3142L76.073 14.6726L76.255 15.2477C76.2786 15.3221 76.1938 15.3838 76.1302 15.3383L75.6394 14.9875L75.1487 15.3383C75.0851 15.3837 75.0004 15.3221 75.0239 15.2477L75.2059 14.6726L74.7206 14.3142C74.6578 14.2677 74.6902 14.1682 74.7683 14.1675L75.3715 14.1629L75.5623 13.5907C75.587 13.5167 75.6918 13.5167 75.7165 13.5907Z" fill="#F5F5F5"/>
<path d="M75.7165 16.5868L75.9074 17.159L76.5106 17.1636C76.5887 17.1643 76.621 17.2639 76.5582 17.3103L76.073 17.6687L76.255 18.2438C76.2786 18.3182 76.1938 18.3799 76.1302 18.3344L75.6394 17.9836L75.1487 18.3344C75.0851 18.3798 75.0004 18.3182 75.0239 18.2438L75.2059 17.6687L74.7206 17.3103C74.6578 17.2638 74.6902 17.1643 74.7683 17.1636L75.3715 17.159L75.5623 16.5868C75.587 16.5127 75.6918 16.5127 75.7165 16.5868Z" fill="#F5F5F5"/>
<path d="M75.7165 19.579L75.9074 20.1513L76.5106 20.1559C76.5887 20.1566 76.621 20.2562 76.5582 20.3026L76.073 20.661L76.255 21.2361C76.2786 21.3105 76.1938 21.3722 76.1302 21.3267L75.6394 20.9759L75.1487 21.3267C75.0851 21.3721 75.0004 21.3105 75.0239 21.2361L75.2059 20.661L74.7206 20.3026C74.6578 20.2561 74.6902 20.1566 74.7683 20.1559L75.3715 20.1513L75.5623 19.579C75.587 19.5049 75.6918 19.5049 75.7165 19.579Z" fill="#F5F5F5"/>
<path d="M75.7165 22.5713L75.9074 23.1436L76.5106 23.1481C76.5887 23.1488 76.621 23.2484 76.5582 23.2948L76.073 23.6532L76.255 24.2283C76.2786 24.3027 76.1938 24.3644 76.1302 24.3189L75.6394 23.9682L75.1487 24.3189C75.0851 24.3643 75.0004 24.3027 75.0239 24.2283L75.2059 23.6532L74.7206 23.2948C74.6578 23.2483 74.6902 23.1488 74.7683 23.1481L75.3715 23.1436L75.5623 22.5713C75.587 22.4971 75.6918 22.4971 75.7165 22.5713Z" fill="#F5F5F5"/>
<path d="M78.0387 12.0672L78.2295 12.6395L78.8327 12.6441C78.9109 12.6448 78.9432 12.7444 78.8804 12.7908L78.3952 13.1492L78.5772 13.7243C78.6008 13.7987 78.516 13.8604 78.4524 13.8149L77.9617 13.4641L77.4709 13.8149C77.4074 13.8603 77.3227 13.7987 77.3461 13.7243L77.5282 13.1492L77.0429 12.7908C76.9801 12.7443 77.0124 12.6448 77.0906 12.6441L77.6938 12.6395L77.8846 12.0672C77.9093 11.9932 78.014 11.9932 78.0387 12.0672Z" fill="#F5F5F5"/>
<path d="M78.0387 15.0595L78.2295 15.6318L78.8327 15.6364C78.9109 15.637 78.9432 15.7366 78.8804 15.783L78.3952 16.1414L78.5772 16.7165C78.6008 16.7909 78.516 16.8527 78.4524 16.8071L77.9617 16.4564L77.4709 16.8071C77.4074 16.8526 77.3227 16.791 77.3461 16.7165L77.5282 16.1414L77.0429 15.783C76.9801 15.7365 77.0124 15.637 77.0906 15.6364L77.6938 15.6318L77.8846 15.0595C77.9093 14.9854 78.014 14.9854 78.0387 15.0595Z" fill="#F5F5F5"/>
<path d="M78.0387 18.0517L78.2295 18.6239L78.8327 18.6285C78.9109 18.6292 78.9432 18.7288 78.8804 18.7752L78.3952 19.1336L78.5772 19.7087C78.6008 19.7831 78.516 19.8448 78.4524 19.7993L77.9617 19.4486L77.4709 19.7993C77.4074 19.8447 77.3227 19.7831 77.3461 19.7087L77.5282 19.1336L77.0429 18.7752C76.9801 18.7287 77.0124 18.6292 77.0906 18.6285L77.6938 18.6239L77.8846 18.0517C77.9093 17.9776 78.014 17.9776 78.0387 18.0517Z" fill="#F5F5F5"/>
<path d="M78.0387 21.0477L78.2295 21.62L78.8327 21.6246C78.9109 21.6252 78.9432 21.7249 78.8804 21.7712L78.3952 22.1296L78.5772 22.7047C78.6008 22.7791 78.516 22.8409 78.4524 22.7954L77.9617 22.4446L77.4709 22.7954C77.4074 22.8408 77.3227 22.7791 77.3461 22.7047L77.5282 22.1296L77.0429 21.7712C76.9801 21.7248 77.0124 21.6252 77.0906 21.6246L77.6938 21.62L77.8846 21.0477C77.9093 20.9737 78.014 20.9737 78.0387 21.0477Z" fill="#F5F5F5"/>
<path d="M80.3629 10.5986L80.5537 11.1708L81.157 11.1754C81.2351 11.1761 81.2674 11.2757 81.2046 11.3221L80.7194 11.6805L80.9014 12.2556C80.925 12.33 80.8402 12.3917 80.7766 12.3462L80.2859 11.9954L79.7952 12.3462C79.7316 12.3916 79.6469 12.33 79.6703 12.2556L79.8524 11.6805L79.3671 11.3221C79.3043 11.2756 79.3367 11.1761 79.4148 11.1754L80.018 11.1708L80.2088 10.5986C80.2333 10.5244 80.3382 10.5244 80.3629 10.5986Z" fill="#F5F5F5"/>
<path d="M80.3629 13.5907L80.5537 14.1629L81.157 14.1675C81.2351 14.1682 81.2674 14.2678 81.2046 14.3142L80.7194 14.6726L80.9014 15.2477C80.925 15.3221 80.8402 15.3838 80.7766 15.3383L80.2859 14.9875L79.7952 15.3383C79.7316 15.3837 79.6469 15.3221 79.6703 15.2477L79.8524 14.6726L79.3671 14.3142C79.3043 14.2677 79.3367 14.1682 79.4148 14.1675L80.018 14.1629L80.2088 13.5907C80.2333 13.5167 80.3382 13.5167 80.3629 13.5907Z" fill="#F5F5F5"/>
<path d="M80.3629 16.5868L80.5537 17.159L81.157 17.1636C81.2351 17.1643 81.2674 17.2639 81.2046 17.3103L80.7194 17.6687L80.9014 18.2438C80.925 18.3182 80.8402 18.3799 80.7766 18.3344L80.2859 17.9836L79.7952 18.3344C79.7316 18.3798 79.6469 18.3182 79.6703 18.2438L79.8524 17.6687L79.3671 17.3103C79.3043 17.2638 79.3367 17.1643 79.4148 17.1636L80.018 17.159L80.2088 16.5868C80.2333 16.5127 80.3382 16.5127 80.3629 16.5868Z" fill="#F5F5F5"/>
<path d="M80.3629 19.579L80.5537 20.1513L81.157 20.1559C81.2351 20.1566 81.2674 20.2562 81.2046 20.3026L80.7194 20.661L80.9014 21.2361C80.925 21.3105 80.8402 21.3722 80.7766 21.3267L80.2859 20.9759L79.7952 21.3267C79.7316 21.3721 79.6469 21.3105 79.6703 21.2361L79.8524 20.661L79.3671 20.3026C79.3043 20.2561 79.3367 20.1566 79.4148 20.1559L80.018 20.1513L80.2088 19.579C80.2333 19.5049 80.3382 19.5049 80.3629 19.579Z" fill="#F5F5F5"/>
<path d="M80.3629 22.5713L80.5537 23.1436L81.157 23.1481C81.2351 23.1488 81.2674 23.2484 81.2046 23.2948L80.7194 23.6532L80.9014 24.2283C80.925 24.3027 80.8402 24.3644 80.7766 24.3189L80.2859 23.9682L79.7952 24.3189C79.7316 24.3643 79.6469 24.3027 79.6703 24.2283L79.8524 23.6532L79.3671 23.2948C79.3043 23.2483 79.3367 23.1488 79.4148 23.1481L80.018 23.1436L80.2088 22.5713C80.2333 22.4971 80.3382 22.4971 80.3629 22.5713Z" fill="#F5F5F5"/>
<path d="M82.6871 12.0672L82.878 12.6395L83.4812 12.6441C83.5593 12.6448 83.5916 12.7444 83.5288 12.7908L83.0436 13.1492L83.2256 13.7243C83.2492 13.7987 83.1644 13.8604 83.1008 13.8149L82.6101 13.4641L82.1194 13.8149C82.0558 13.8603 81.9711 13.7987 81.9946 13.7243L82.1766 13.1492L81.6913 12.7908C81.6286 12.7443 81.6609 12.6448 81.739 12.6441L82.3422 12.6395L82.533 12.0672C82.5577 11.9932 82.6625 11.9932 82.6871 12.0672Z" fill="#F5F5F5"/>
<path d="M82.6871 15.0595L82.878 15.6318L83.4812 15.6364C83.5593 15.637 83.5916 15.7366 83.5288 15.783L83.0436 16.1414L83.2256 16.7165C83.2492 16.7909 83.1644 16.8527 83.1008 16.8071L82.6101 16.4564L82.1194 16.8071C82.0558 16.8526 81.9711 16.791 81.9946 16.7165L82.1766 16.1414L81.6913 15.783C81.6286 15.7365 81.6609 15.637 81.739 15.6364L82.3422 15.6318L82.533 15.0595C82.5577 14.9854 82.6625 14.9854 82.6871 15.0595Z" fill="#F5F5F5"/>
<path d="M82.6871 18.0517L82.878 18.6239L83.4812 18.6285C83.5593 18.6292 83.5916 18.7288 83.5288 18.7752L83.0436 19.1336L83.2256 19.7087C83.2492 19.7831 83.1644 19.8448 83.1008 19.7993L82.6101 19.4486L82.1194 19.7993C82.0558 19.8447 81.9711 19.7831 81.9946 19.7087L82.1766 19.1336L81.6913 18.7752C81.6286 18.7287 81.6609 18.6292 81.739 18.6285L82.3422 18.6239L82.533 18.0517C82.5577 17.9776 82.6625 17.9776 82.6871 18.0517Z" fill="#F5F5F5"/>
<path d="M82.6871 21.0477L82.878 21.62L83.4812 21.6246C83.5593 21.6252 83.5916 21.7249 83.5288 21.7712L83.0436 22.1296L83.2256 22.7047C83.2492 22.7791 83.1644 22.8409 83.1008 22.7954L82.6101 22.4446L82.1194 22.7954C82.0558 22.8408 81.9711 22.7791 81.9946 22.7047L82.1766 22.1296L81.6913 21.7712C81.6286 21.7248 81.6609 21.6252 81.739 21.6246L82.3422 21.62L82.533 21.0477C82.5577 20.9737 82.6625 20.9737 82.6871 21.0477Z" fill="#F5F5F5"/>
<path d="M85.0094 10.5986L85.2002 11.1708L85.8034 11.1754C85.8816 11.1761 85.9139 11.2757 85.8511 11.3221L85.3659 11.6805L85.5479 12.2556C85.5715 12.33 85.4867 12.3917 85.4231 12.3462L84.9324 11.9954L84.4416 12.3462C84.3781 12.3916 84.2934 12.33 84.3168 12.2556L84.4989 11.6805L84.0136 11.3221C83.9508 11.2756 83.9831 11.1761 84.0613 11.1754L84.6645 11.1708L84.8553 10.5986C84.8799 10.5244 84.9846 10.5244 85.0094 10.5986Z" fill="#F5F5F5"/>
<path d="M85.0094 13.5907L85.2002 14.1629L85.8034 14.1675C85.8816 14.1682 85.9139 14.2678 85.8511 14.3142L85.3659 14.6726L85.5479 15.2477C85.5715 15.3221 85.4867 15.3838 85.4231 15.3383L84.9324 14.9875L84.4416 15.3383C84.3781 15.3837 84.2934 15.3221 84.3168 15.2477L84.4989 14.6726L84.0136 14.3142C83.9508 14.2677 83.9831 14.1682 84.0613 14.1675L84.6645 14.1629L84.8553 13.5907C84.8799 13.5167 84.9846 13.5167 85.0094 13.5907Z" fill="#F5F5F5"/>
<path d="M85.0094 16.5868L85.2002 17.159L85.8034 17.1636C85.8816 17.1643 85.9139 17.2639 85.8511 17.3103L85.3659 17.6687L85.5479 18.2438C85.5715 18.3182 85.4867 18.3799 85.4231 18.3344L84.9324 17.9836L84.4416 18.3344C84.3781 18.3798 84.2934 18.3182 84.3168 18.2438L84.4989 17.6687L84.0136 17.3103C83.9508 17.2638 83.9831 17.1643 84.0613 17.1636L84.6645 17.159L84.8553 16.5868C84.8799 16.5127 84.9846 16.5127 85.0094 16.5868Z" fill="#F5F5F5"/>
<path d="M85.0094 19.579L85.2002 20.1513L85.8034 20.1559C85.8816 20.1566 85.9139 20.2562 85.8511 20.3026L85.3659 20.661L85.5479 21.2361C85.5715 21.3105 85.4867 21.3722 85.4231 21.3267L84.9324 20.9759L84.4416 21.3267C84.3781 21.3721 84.2934 21.3105 84.3168 21.2361L84.4989 20.661L84.0136 20.3026C83.9508 20.2561 83.9831 20.1566 84.0613 20.1559L84.6645 20.1513L84.8553 19.579C84.8799 19.5049 84.9846 19.5049 85.0094 19.579Z" fill="#F5F5F5"/>
<path d="M85.0094 22.5713L85.2002 23.1436L85.8034 23.1481C85.8816 23.1488 85.9139 23.2484 85.8511 23.2948L85.3659 23.6532L85.5479 24.2283C85.5715 24.3027 85.4867 24.3644 85.4231 24.3189L84.9324 23.9682L84.4416 24.3189C84.3781 24.3643 84.2934 24.3027 84.3168 24.2283L84.4989 23.6532L84.0136 23.2948C83.9508 23.2483 83.9831 23.1488 84.0613 23.1481L84.6645 23.1436L84.8553 22.5713C84.8799 22.4971 84.9846 22.4971 85.0094 22.5713Z" fill="#F5F5F5"/>
</g>
<defs>
<clipPath id="clip0_128_955">
<rect width="50" height="50" fill="white" transform="translate(255)"/>
</clipPath>
<clipPath id="clip1_128_955">
<rect width="50" height="50" fill="white" transform="translate(127)"/>
</clipPath>
<clipPath id="clip2_128_955">
<rect width="50" height="50" fill="white" transform="translate(191)"/>
</clipPath>
<clipPath id="clip3_128_955">
<rect width="50" height="50" fill="white"/>
</clipPath>
<clipPath id="clip4_128_955">
<rect width="50" height="50" fill="white" transform="translate(64)"/>
</clipPath>
</defs>
</svg>
