<svg width="29" height="27" viewBox="0 0 29 27" fill="none" xmlns="http://www.w3.org/2000/svg">
<path d="M13.5975 0.891365C13.9597 0.132243 15.0403 0.132245 15.4025 0.891367L18.7305 7.86568C18.8763 8.17119 19.1667 8.38221 19.5023 8.42645L27.1637 9.43636C27.9976 9.54628 28.3315 10.574 27.7215 11.153L22.1169 16.4733C21.8714 16.7064 21.7605 17.0478 21.8221 17.3807L23.2291 24.9791C23.3823 25.8062 22.5081 26.4413 21.7688 26.0401L14.977 22.3539C14.6795 22.1924 14.3205 22.1924 14.023 22.3539L7.23119 26.0401C6.49194 26.4413 5.61775 25.8062 5.7709 24.9791L7.17791 17.3807C7.23954 17.0478 7.1286 16.7064 6.88309 16.4733L1.27853 11.153C0.668496 10.574 1.00241 9.54628 1.83631 9.43636L9.49768 8.42645C9.83329 8.38221 10.1237 8.17119 10.2695 7.86568L13.5975 0.891365Z" fill="#FFC700"/>
</svg>
