<svg width="103" height="31" viewBox="0 0 103 31" fill="none" xmlns="http://www.w3.org/2000/svg">
<path d="M14.5975 1.89137C14.9597 1.13224 16.0403 1.13224 16.4025 1.89137L19.7305 8.86568C19.8763 9.17119 20.1667 9.38221 20.5023 9.42645L28.1637 10.4364C28.9976 10.5463 29.3315 11.574 28.7215 12.153L23.1169 17.4733C22.8714 17.7064 22.7605 18.0478 22.8221 18.3807L24.2291 25.9791C24.3823 26.8062 23.5081 27.4413 22.7688 27.0401L15.977 23.3539C15.6795 23.1924 15.3205 23.1924 15.023 23.3539L8.23119 27.0401C7.49194 27.4413 6.61775 26.8062 6.7709 25.9791L8.17791 18.3807C8.23954 18.0478 8.1286 17.7064 7.88309 17.4733L2.27853 12.153C1.6685 11.574 2.00241 10.5463 2.83631 10.4364L10.4977 9.42645C10.8333 9.38221 11.1237 9.17119 11.2695 8.86568L14.5975 1.89137Z" fill="#FFC700"/>
<path d="M50.5975 1.89137C50.9597 1.13224 52.0403 1.13224 52.4025 1.89137L55.7305 8.86568C55.8763 9.17119 56.1667 9.38221 56.5023 9.42645L64.1637 10.4364C64.9976 10.5463 65.3315 11.574 64.7215 12.153L59.1169 17.4733C58.8714 17.7064 58.7605 18.0478 58.8221 18.3807L60.2291 25.9791C60.3823 26.8062 59.5081 27.4413 58.7688 27.0401L51.977 23.3539C51.6795 23.1924 51.3205 23.1924 51.023 23.3539L44.2312 27.0401C43.4919 27.4413 42.6177 26.8062 42.7709 25.9791L44.1779 18.3807C44.2395 18.0478 44.1286 17.7064 43.8831 17.4733L38.2785 12.153C37.6685 11.574 38.0024 10.5463 38.8363 10.4364L46.4977 9.42645C46.8333 9.38221 47.1237 9.17119 47.2695 8.86568L50.5975 1.89137Z" fill="#FFC700"/>
<path d="M86.5975 1.89137C86.9597 1.13224 88.0403 1.13224 88.4025 1.89137L91.7305 8.86568C91.8763 9.17119 92.1667 9.38221 92.5023 9.42645L100.164 10.4364C100.998 10.5463 101.332 11.574 100.721 12.153L95.1169 17.4733C94.8714 17.7064 94.7605 18.0478 94.8221 18.3807L96.2291 25.9791C96.3823 26.8062 95.5081 27.4413 94.7688 27.0401L87.977 23.3539C87.6795 23.1924 87.3205 23.1924 87.023 23.3539L80.2312 27.0401C79.4919 27.4413 78.6177 26.8062 78.7709 25.9791L80.1779 18.3807C80.2395 18.0478 80.1286 17.7064 79.8831 17.4733L74.2785 12.153C73.6685 11.574 74.0024 10.5463 74.8363 10.4364L82.4977 9.42645C82.8333 9.38221 83.1237 9.17119 83.2695 8.86568L86.5975 1.89137Z" fill="#FFC700"/>
</svg>
